<svg width="29" height="29" viewBox="0 0 29 29" fill="none" xmlns="http://www.w3.org/2000/svg">
<path d="M11.0125 19.5407H12.1389V8.7591H11.0125V19.5407ZM16.1619 19.5407H17.2883V8.7591H16.1619V19.5407ZM14.1572 28.1499C12.2216 28.1499 10.4015 27.7826 8.69683 27.048C6.99215 26.3134 5.50941 25.3164 4.24861 24.0569C2.98754 22.7975 1.9893 21.3166 1.2539 19.6143C0.518226 17.9118 0.150391 16.0926 0.150391 14.1567C0.150391 12.2211 0.517689 10.401 1.25229 8.69634C1.98688 6.99167 2.98392 5.50893 4.24338 4.24812C5.50284 2.98705 6.98371 1.98881 8.68597 1.25341C10.3885 0.517737 12.2077 0.149902 14.1436 0.149902C16.0791 0.149902 17.8993 0.517202 19.604 1.2518C21.3086 1.9864 22.7914 2.98343 24.0522 4.24289C25.3132 5.50235 26.3115 6.98322 27.0469 8.68548C27.7826 10.388 28.1504 12.2072 28.1504 14.1431C28.1504 16.0787 27.7831 17.8988 27.0485 19.6035C26.3139 21.3081 25.3169 22.7909 24.0574 24.0517C22.7979 25.3128 21.3171 26.311 19.6148 27.0464C17.9123 27.7821 16.0931 28.1499 14.1572 28.1499ZM14.1504 27.0235C17.7443 27.0235 20.7883 25.7763 23.2826 23.2821C25.7768 20.7878 27.024 17.7438 27.024 14.1499C27.024 10.556 25.7768 7.51197 23.2826 5.01772C20.7883 2.52347 17.7443 1.27634 14.1504 1.27634C10.5565 1.27634 7.51246 2.52347 5.01821 5.01772C2.52395 7.51197 1.27683 10.556 1.27683 14.1499C1.27683 17.7438 2.52395 20.7878 5.01821 23.2821C7.51246 25.7763 10.5565 27.0235 14.1504 27.0235Z" fill="white"/>
</svg>
