<svg width="30" height="30" viewBox="0 0 30 30" fill="none" xmlns="http://www.w3.org/2000/svg">
<path d="M14.9932 0.849609C16.9482 0.84961 18.7886 1.22093 20.5127 1.96387C22.234 2.70565 23.733 3.71389 25.0078 4.9873C26.2827 6.26066 27.2916 7.75771 28.0342 9.47656C28.7782 11.1986 29.1504 13.0379 29.1504 14.9932C29.1504 16.9482 28.7791 18.7886 28.0361 20.5127C27.2944 22.234 26.2861 23.733 25.0127 25.0078C23.7393 26.2827 22.2423 27.2916 20.5234 28.0342C18.8014 28.7782 16.9621 29.1504 15.0068 29.1504C13.0518 29.1504 11.2114 28.7791 9.4873 28.0361C7.76596 27.2944 6.26696 26.2861 4.99219 25.0127C3.71727 23.7393 2.70839 22.2423 1.96582 20.5234C1.22179 18.8014 0.849609 16.9621 0.849609 15.0068C0.84961 13.0518 1.22093 11.2114 1.96387 9.4873C2.70565 7.76596 3.71389 6.26696 4.9873 4.99219C6.26066 3.71727 7.75771 2.70839 9.47656 1.96582C11.1986 1.22179 13.0379 0.849609 14.9932 0.849609ZM15 2.27637C11.4451 2.27637 8.43917 3.5081 5.97363 5.97363C3.5081 8.43917 2.27637 11.4451 2.27637 15C2.27637 18.5549 3.5081 21.5608 5.97363 24.0264C8.43917 26.4919 11.4451 27.7236 15 27.7236C18.5549 27.7236 21.5608 26.4919 24.0264 24.0264C26.4919 21.5608 27.7236 18.5549 27.7236 15C27.7236 11.4451 26.4919 8.43917 24.0264 5.97363C21.5608 3.5081 18.5549 2.27637 15 2.27637ZM12.1035 9.56348L20.3916 14.874L20.5879 15L20.3916 15.126L12.1035 20.4365L11.873 20.585V9.41504L12.1035 9.56348Z" fill="white" stroke="white" stroke-width="0.3"/>
</svg>
