<svg width="11" height="12" viewBox="0 0 11 12" fill="none" xmlns="http://www.w3.org/2000/svg">
<path d="M9.21484 6.56836V9.56934H2.15527L3.20898 10.6055L3.31738 10.7129L3.20898 10.8193L2.91699 11.1074L2.81152 11.21L2.70605 11.1074L0.894531 9.3252L0.786133 9.21875L0.894531 9.11133L2.70605 7.33008L2.81152 7.22656L2.91699 7.33008L3.20898 7.61719L3.31738 7.72461L3.20898 7.83105L2.15527 8.86719H8.50586V6.56836H9.21484ZM8.29395 0.892578L10.1055 2.6748L10.2139 2.78125L10.1055 2.88867L8.29395 4.66992L8.18848 4.77344L8.08301 4.66992L7.79102 4.38281L7.68262 4.27539L7.79102 4.16895L8.84473 3.13281H2.49414V5.43164H1.78516V2.43066H8.84473L7.79102 1.39453L7.68262 1.28711L7.79102 1.18066L8.08301 0.892578L8.18848 0.790039L8.29395 0.892578Z" fill="#CED4DA" stroke="white" stroke-width="0.3"/>
</svg>
