<svg width="12" height="12" viewBox="0 0 12 12" fill="none" xmlns="http://www.w3.org/2000/svg">
<path d="M11.1504 0.849609V4.37793H10.3271V2.25879L1.47949 11.1064L1.37305 11.2119L1.2666 11.1064L0.893555 10.7334L0.788086 10.627L0.893555 10.5205L9.74121 1.67285H7.56641V0.849609H11.1504ZM7.91602 7.29297L10.3271 9.7041V7.62207H11.1504V11.1504H7.56641V10.3271H9.7793L7.33008 7.87891L7.22461 7.77246L7.33008 7.66602L7.7041 7.29297L7.80957 7.1875L7.91602 7.29297ZM1.46094 0.893555L4.55762 3.99121L4.66406 4.09668L4.09668 4.66406L3.99121 4.55762L0.893555 1.46094L0.788086 1.35449L0.893555 1.24805L1.24805 0.893555L1.35449 0.788086L1.46094 0.893555Z" fill="#F8F9FA" stroke="white" stroke-width="0.3"/>
</svg>
