<svg width="40" height="35" viewBox="0 0 40 35" fill="none" xmlns="http://www.w3.org/2000/svg">
<path d="M0 35V6.13636C0 4.44886 0.604381 3.00417 1.81314 1.80227C3.02152 0.600756 4.47429 0 6.17143 0H22.1714C23.8686 0 25.3215 0.600756 26.5303 1.80227C27.7387 3.00417 28.3429 4.44886 28.3429 6.13636V8.40909H26.7429V6.13636C26.7429 4.88636 26.2952 3.81629 25.4 2.92614C24.5048 2.03598 23.4286 1.59091 22.1714 1.59091H6.17143C4.91429 1.59091 3.8381 2.03598 2.94286 2.92614C2.04762 3.81629 1.6 4.88636 1.6 6.13636V33.4091H26.7429V28.8636H28.3429V35H0ZM14.1714 23.6364C15.8686 23.6364 17.3213 23.0354 18.5297 21.8335C19.7385 20.632 20.3429 19.1875 20.3429 17.5C20.3429 15.8125 19.7385 14.3678 18.5297 13.1659C17.3213 11.9644 15.8686 11.3636 14.1714 11.3636C12.4743 11.3636 11.0215 11.9644 9.81314 13.1659C8.60438 14.3678 8 15.8125 8 17.5C8 19.1875 8.60438 20.632 9.81314 21.8335C11.0215 23.0354 12.4743 23.6364 14.1714 23.6364ZM14.1714 22.0455C12.9143 22.0455 11.8381 21.6004 10.9429 20.7102C10.0476 19.8201 9.6 18.75 9.6 17.5C9.6 16.25 10.0476 15.1799 10.9429 14.2898C11.8381 13.3996 12.9143 12.9545 14.1714 12.9545C15.4286 12.9545 16.5048 13.3996 17.4 14.2898C18.2952 15.1799 18.7429 16.25 18.7429 17.5C18.7429 18.75 18.2952 19.8201 17.4 20.7102C16.5048 21.6004 15.4286 22.0455 14.1714 22.0455ZM27.5429 16.0227V14.4318H28.1143C28.7703 14.4318 29.3533 14.2898 29.8634 14.0057C30.3735 13.7216 30.781 13.2576 31.0857 12.6136C31.5048 11.7424 32.1002 11.0701 32.872 10.5966C33.6442 10.1231 34.4964 9.88636 35.4286 9.88636H36V11.4773H35.4286C34.7726 11.4773 34.1895 11.6193 33.6794 11.9034C33.1693 12.1875 32.7619 12.6515 32.4571 13.2955C32.0381 14.1667 31.4427 14.839 30.6709 15.3125C29.8987 15.786 29.0465 16.0227 28.1143 16.0227H27.5429ZM27.5429 25.1136V23.5227H28.1143C28.7703 23.5227 29.3533 23.3807 29.8634 23.0966C30.3735 22.8125 30.781 22.3485 31.0857 21.7045C31.5048 20.9091 32.1002 20.2557 32.872 19.7443C33.6442 19.233 34.4964 18.9773 35.4286 18.9773H36V20.5682H35.4286C34.7726 20.5682 34.1895 20.7102 33.6794 20.9943C33.1693 21.2784 32.7619 21.7424 32.4571 22.3864C32.0381 23.2576 31.4427 23.9299 30.6709 24.4034C29.8987 24.8769 29.0465 25.1136 28.1143 25.1136H27.5429Z" fill="#F8F9FA"/>
</svg>
