<svg width="40" height="35" viewBox="0 0 40 35" fill="none" xmlns="http://www.w3.org/2000/svg">
<path d="M0 35V33.4091H4.54545V3.40909C4.54545 2.42424 4.86742 1.60985 5.51136 0.965909C6.1553 0.32197 6.9697 0 7.95455 0H27.0455C28.0303 0 28.8447 0.32197 29.4886 0.965909C30.1326 1.60985 30.4545 2.42424 30.4545 3.40909V33.4091H35V35H0ZM28.8636 33.4091V3.40909C28.8636 2.95455 28.6742 2.53788 28.2955 2.15909C27.9167 1.7803 27.5 1.59091 27.0455 1.59091H7.95455C7.5 1.59091 7.08333 1.7803 6.70455 2.15909C6.32576 2.53788 6.13636 2.95455 6.13636 3.40909V33.4091H28.8636ZM22.7273 19.0909C23.1439 19.0909 23.5133 18.9299 23.8352 18.608C24.1572 18.286 24.3182 17.9167 24.3182 17.5C24.3182 17.0833 24.1572 16.714 23.8352 16.392C23.5133 16.0701 23.1439 15.9091 22.7273 15.9091C22.3106 15.9091 21.9413 16.0701 21.6193 16.392C21.2973 16.714 21.1364 17.0833 21.1364 17.5C21.1364 17.9167 21.2973 18.286 21.6193 18.608C21.9413 18.9299 22.3106 19.0909 22.7273 19.0909Z" fill="white"/>
</svg>
