<svg width="40" height="35" viewBox="0 0 40 35" fill="none" xmlns="http://www.w3.org/2000/svg">
<path d="M14.759 34.7833C14.6887 34.8521 14.606 34.896 14.511 34.9149C14.4159 34.9338 14.3209 34.9433 14.2259 34.9433C14.1308 34.9433 14.0263 34.9338 13.9123 34.9149C13.7982 34.896 13.7032 34.8487 13.6272 34.7731C12.5249 33.5251 11.6316 32.1542 10.9474 30.6605C10.2632 29.1667 9.92105 27.5759 9.92105 25.8881C9.92105 24.6639 10.0921 23.3806 10.4342 22.0381C10.7763 20.6956 11.4035 18.9465 12.3158 16.7909C13.076 14.8244 13.6272 13.2501 13.9693 12.0679C14.3114 10.8861 14.4825 9.7913 14.4825 8.78347C14.4825 7.46591 14.1974 6.20205 13.6272 4.9919C13.057 3.78174 12.1637 2.59049 10.9474 1.41815C10.877 1.33495 10.8215 1.23795 10.7809 1.12715C10.7398 1.01596 10.7193 0.90497 10.7193 0.794165C10.7193 0.718531 10.7288 0.633441 10.7478 0.538898C10.7668 0.444354 10.8109 0.359265 10.8801 0.28363C10.963 0.207996 11.0595 0.141815 11.1697 0.0850891C11.2804 0.028363 11.3944 0 11.5118 0C11.6297 0 11.7285 0.025715 11.8083 0.0771467C11.8882 0.128956 11.9623 0.197785 12.0307 0.28363C13.2091 1.41815 14.1784 2.70394 14.9386 4.14101C15.6988 5.57807 16.0789 7.11969 16.0789 8.76589C16.0789 9.91818 15.909 11.128 15.5692 12.3952C15.2298 13.6629 14.6394 15.3172 13.7982 17.3582C12.924 19.4381 12.3253 21.1021 12.0022 22.3501C11.6791 23.5981 11.5175 24.7704 11.5175 25.8671C11.5175 27.2569 11.7836 28.5969 12.3158 29.8873C12.848 31.178 13.6842 32.4284 14.8246 33.6386C14.8937 33.7206 14.949 33.8093 14.9905 33.9046C15.0319 34.0003 15.0526 34.1028 15.0526 34.2121C15.0526 34.3214 15.0241 34.4233 14.9671 34.5178C14.9101 34.6124 14.8407 34.7009 14.759 34.7833ZM24.68 34.7731C24.6097 34.8487 24.5276 34.9055 24.4337 34.9433C24.3402 34.9811 24.2357 35 24.1201 35C24.005 35 23.8989 34.9796 23.802 34.9387C23.7054 34.8983 23.6208 34.8431 23.5482 34.7731C22.4459 33.5629 21.5431 32.2015 20.8399 30.6888C20.1367 29.1761 19.7851 27.5901 19.7851 25.9306C19.7851 24.7265 19.9656 23.4411 20.3268 22.0744C20.6879 20.7077 21.3246 18.9465 22.2368 16.7909C23.0351 14.7866 23.5958 13.2106 23.9189 12.0628C24.242 10.915 24.4035 9.84387 24.4035 8.84927C24.4035 7.49087 24.1184 6.20243 23.5482 4.98395C22.9781 3.76548 22.0848 2.57688 20.8684 1.41815C20.7924 1.33193 20.7354 1.23512 20.6974 1.12771C20.6594 1.01994 20.6404 0.908752 20.6404 0.794165C20.6404 0.707563 20.6499 0.629281 20.6689 0.559318C20.6879 0.488978 20.7325 0.412019 20.8028 0.328443C20.8872 0.244866 20.9859 0.178686 21.0988 0.129902C21.2113 0.0811171 21.3196 0.0567261 21.4238 0.0567261C21.5283 0.0567261 21.6228 0.0773381 21.7071 0.118559C21.7919 0.15978 21.8734 0.214803 21.9518 0.28363C23.1301 1.41815 24.0994 2.70394 24.8596 4.14101C25.6199 5.57807 26 7.11969 26 8.76589C26 9.91818 25.8289 11.1183 25.4868 12.3663C25.1447 13.6143 24.5365 15.2971 23.6623 17.4149C22.788 19.5327 22.1893 21.1967 21.8662 22.4068C21.5431 23.617 21.3816 24.7683 21.3816 25.8609C21.3816 27.2264 21.6667 28.5521 22.2368 29.8379C22.807 31.1237 23.6623 32.4095 24.8026 33.6953C24.8596 33.7709 24.9024 33.8528 24.9309 33.9409C24.9594 34.0294 24.9737 34.1177 24.9737 34.2058C24.9737 34.3068 24.9452 34.4076 24.8882 34.5082C24.8311 34.6092 24.7618 34.6975 24.68 34.7731ZM4.83794 34.7731C4.76762 34.8487 4.68551 34.9055 4.59162 34.9433C4.49811 34.9811 4.39358 35 4.27803 35C4.16285 35 4.0568 34.9796 3.95987 34.9387C3.86332 34.8983 3.77874 34.8431 3.70614 34.7731C2.6038 33.5629 1.71053 32.2015 1.02632 30.6888C0.342105 29.1761 0 27.5901 0 25.9306C0 24.7265 0.171053 23.4411 0.513158 22.0744C0.855263 20.7077 1.48246 18.9465 2.39474 16.7909C3.19298 14.7866 3.75365 13.2106 4.07675 12.0628C4.39985 10.915 4.5614 9.84387 4.5614 8.84927C4.5614 7.49087 4.27632 6.20243 3.70614 4.98395C3.13596 3.76548 2.24269 2.57688 1.02632 1.41815C0.944591 1.33155 0.886053 1.23436 0.850703 1.12658C0.815732 1.01842 0.798246 0.913858 0.798246 0.812886C0.798246 0.712292 0.807748 0.617748 0.826754 0.529255C0.84576 0.441141 0.889854 0.359265 0.959035 0.28363C1.0419 0.207996 1.14035 0.141815 1.25439 0.0850891C1.36842 0.028363 1.47295 0 1.56798 0C1.66301 0 1.75709 0.025715 1.85022 0.0771467C1.94335 0.128956 2.02982 0.197785 2.10965 0.28363C3.28801 1.41815 4.25731 2.70659 5.01754 4.14895C5.77778 5.59168 6.15789 7.13955 6.15789 8.79254C6.15789 9.88925 5.99635 11.0616 5.67325 12.3096C5.35015 13.5575 4.7526 15.2482 3.88061 17.3814C3.04208 19.4459 2.45175 21.1021 2.10965 22.3501C1.76754 23.5981 1.59649 24.7704 1.59649 25.8671C1.59649 27.2663 1.87208 28.6123 2.42325 29.9049C2.97442 31.1971 3.82018 32.4606 4.96053 33.6953C5.01754 33.7709 5.06031 33.8528 5.08882 33.9409C5.11732 34.0294 5.13158 34.1177 5.13158 34.2058C5.13158 34.3068 5.10307 34.4076 5.04605 34.5082C4.98904 34.6092 4.91966 34.6975 4.83794 34.7731Z" fill="#E3E3E3"/>
</svg>
