<svg width="40" height="35" viewBox="0 0 40 35" fill="none" xmlns="http://www.w3.org/2000/svg">
<path d="M19.2513 35V29.257H20.7487V35H19.2513ZM0 15.4954V13.9783H5.66845V15.4954H0ZM34.3316 15.4954V13.9783H40V15.4954H34.3316ZM32.9412 30.0155L28.984 26.0062L30.0535 24.9226L34.0107 28.9319L32.9412 30.0155ZM7.05882 30.0155L5.9893 28.9319L9.94652 24.9226L11.016 26.0062L7.05882 30.0155ZM20 22.7554C17.7897 22.7554 15.918 21.9788 14.385 20.4257C12.852 18.8725 12.0856 16.9763 12.0856 14.7368C12.0856 13.2198 12.4688 11.8292 13.2353 10.565C14.0018 9.30083 15.0446 8.30753 16.3636 7.58514V0H23.6364V7.58514C24.9554 8.30753 25.9982 9.30083 26.7647 10.565C27.5312 11.8292 27.9144 13.2198 27.9144 14.7368C27.9144 16.9763 27.1479 18.8725 25.615 20.4257C24.082 21.9788 22.2103 22.7554 20 22.7554ZM17.861 7.04334C18.2175 6.93498 18.5651 6.85372 18.9037 6.79954C19.2424 6.74536 19.6078 6.71827 20 6.71827C20.3922 6.71827 20.7576 6.74536 21.0963 6.79954C21.4349 6.85372 21.7825 6.93498 22.139 7.04334V1.51703H17.861V7.04334ZM20 21.2384C21.7825 21.2384 23.2977 20.6063 24.5455 19.3421C25.7932 18.0779 26.4171 16.5428 26.4171 14.7368C26.4171 12.9309 25.7932 11.3958 24.5455 10.1316C23.2977 8.86739 21.7825 8.23529 20 8.23529C18.2175 8.23529 16.7023 8.86739 15.4545 10.1316C14.2068 11.3958 13.5829 12.9309 13.5829 14.7368C13.5829 16.5428 14.2068 18.0779 15.4545 19.3421C16.7023 20.6063 18.2175 21.2384 20 21.2384Z" fill="#E3E3E3"/>
</svg>
