<svg width="35" height="35" viewBox="0 0 35 35" fill="none" xmlns="http://www.w3.org/2000/svg">
<path d="M16.8449 35V25.5481L9.54545 32.754L8.60963 31.8182L16.8449 23.5829V18.1551H11.4171L3.18182 26.3904L2.24599 25.4545L9.45187 18.1551H0V16.8449H9.45187L2.24599 9.54545L3.18182 8.60963L11.4171 16.8449H16.8449V11.4171L8.60963 3.18182L9.54545 2.24599L16.8449 9.45187V0H18.1551V9.45187L25.4545 2.24599L26.3904 3.18182L18.1551 11.4171V16.8449H23.5829L31.8182 8.60963L32.754 9.54545L25.5481 16.8449H35V18.1551H25.5481L32.754 25.4545L31.8182 26.3904L23.5829 18.1551H18.1551V23.5829L26.3904 31.8182L25.4545 32.754L18.1551 25.5481V35H16.8449Z" fill="#E3E3E3"/>
</svg>
