<svg width="36" height="35" viewBox="0 0 36 35" fill="none" xmlns="http://www.w3.org/2000/svg">
<path d="M6.73714 22.9258C4.74857 22.2125 3.12857 20.9898 1.87714 19.2576C0.625714 17.5255 0 15.5386 0 13.2969C0 11.7006 0.282857 10.2317 0.848571 8.8901C1.41429 7.54852 2.10857 6.31732 2.93143 5.19651C3.75429 4.07569 4.65429 3.08224 5.63143 2.21616C6.60857 1.35007 7.50857 0.611354 8.33143 0V1.47744C8.33143 2.90393 8.82857 4.10966 9.82286 5.09461C10.8171 6.07957 12.0343 6.57205 13.4743 6.57205C13.9886 6.57205 14.4857 6.48714 14.9657 6.31732C15.4457 6.1475 15.8914 5.92673 16.3029 5.65502L16.92 5.24745C17.64 5.85881 18.2657 6.53809 18.7971 7.2853C19.3286 8.03251 19.7486 8.84765 20.0571 9.73071L18.9257 10.8515C18.72 10.1383 18.4371 9.46749 18.0771 8.83916C17.7171 8.21082 17.28 7.62494 16.7657 7.08151C16.2857 7.38719 15.7629 7.61645 15.1971 7.76929C14.6314 7.92213 14.0571 7.99854 13.4743 7.99854C11.9314 7.99854 10.56 7.52305 9.36 6.57205C8.16 5.62106 7.38857 4.38137 7.04571 2.85298C5.46857 4.24551 4.14 5.81635 3.06 7.5655C1.98 9.31465 1.44 11.2251 1.44 13.2969C1.44 15.097 1.91143 16.7103 2.85429 18.1368C3.79714 19.5633 5.04 20.6162 6.58286 21.2955C6.44571 21.0238 6.34286 20.7436 6.27429 20.4549C6.20571 20.1662 6.17143 19.852 6.17143 19.5124C6.17143 18.9689 6.28286 18.451 6.50571 17.9585C6.72857 17.466 7.02857 17.033 7.40571 16.6594L10.3371 13.7555L13.1657 16.5575L12.1371 17.5764L10.3371 15.7933L8.43429 17.6783C8.16 17.95 7.95429 18.2302 7.81714 18.5189C7.68 18.8076 7.61143 19.1388 7.61143 19.5124C7.61143 19.886 7.68 20.2171 7.81714 20.5058C7.95429 20.7945 8.14286 21.0577 8.38286 21.2955L6.73714 22.9258ZM2.41714 35L1.38857 33.9811L34.9714 0.713246L36 1.73217L25.4057 12.2271H36V13.6536H23.9143L19.6971 17.8311L23.9657 22.0597H36V23.4862H25.4057L33.2743 31.2809L32.2457 32.2999L24.3771 24.5051V35H22.9371V23.0786L18.6686 18.8501L14.4 23.0786V35H12.96V24.5051L2.41714 35Z" fill="white"/>
</svg>
