<svg width="40" height="35" viewBox="0 0 40 35" fill="none" xmlns="http://www.w3.org/2000/svg">
<path d="M1.56716 19.748C1.56716 22.5556 2.34142 25.1165 3.88993 27.4309C5.43843 29.7453 7.5 31.4146 10.0746 32.439C9.70149 31.9079 9.42164 31.3482 9.23507 30.7602C9.04851 30.1721 8.95522 29.5745 8.95522 28.9675C8.95522 28.1707 9.11381 27.4119 9.43097 26.6911C9.74813 25.9702 10.1866 25.3252 10.7463 24.7561L15 20.4878L19.3097 24.7561C19.8694 25.3252 20.2985 25.9702 20.597 26.6911C20.8955 27.4119 21.0448 28.1707 21.0448 28.9675C21.0448 29.5745 20.9515 30.1721 20.7649 30.7602C20.5784 31.3482 20.2985 31.9079 19.9254 32.439C22.5 31.4146 24.5616 29.7453 26.1101 27.4309C27.6586 25.1165 28.4328 22.5556 28.4328 19.748C28.4328 17.8509 28.0877 16.0583 27.3974 14.3699C26.7071 12.6816 25.709 11.1734 24.403 9.84553C23.6567 10.3388 22.8731 10.7087 22.0522 10.9553C21.2313 11.2019 20.3918 11.3252 19.5336 11.3252C17.1828 11.3252 15.1586 10.5474 13.4608 8.99187C11.7631 7.43631 10.8022 5.48238 10.5784 3.13008C9.12313 4.34417 7.83582 5.62466 6.71642 6.97154C5.59701 8.31843 4.65485 9.70325 3.88993 11.126C3.125 12.5488 2.54664 13.981 2.15485 15.4228C1.76306 16.8645 1.56716 18.3062 1.56716 19.748ZM15 22.7073L11.8097 25.8943C11.3993 26.3117 11.0821 26.7859 10.8582 27.3171C10.6343 27.8482 10.5224 28.3984 10.5224 28.9675C10.5224 30.1816 10.9608 31.2249 11.8377 32.0976C12.7146 32.9702 13.7687 33.4065 15 33.4065C16.2313 33.4065 17.2854 32.9702 18.1623 32.0976C19.0392 31.2249 19.4776 30.1816 19.4776 28.9675C19.4776 28.3604 19.3657 27.8008 19.1418 27.2886C18.9179 26.7764 18.6007 26.3117 18.1903 25.8943L15 22.7073ZM12.0896 0V2.21951C12.0896 4.34417 12.8078 6.12737 14.2444 7.56911C15.681 9.01084 17.444 9.73171 19.5336 9.73171C20.2425 9.73171 20.9422 9.61789 21.6325 9.39024C22.3228 9.1626 22.9851 8.84011 23.6194 8.42276L24.5709 7.79675C26.2873 9.23848 27.6213 11.0122 28.5728 13.1179C29.5243 15.2236 30 17.4336 30 19.748C30 23.9973 28.5448 27.6016 25.6343 30.561C22.7239 33.5203 19.1791 35 15 35C10.8209 35 7.27612 33.5203 4.36567 30.561C1.45522 27.6016 0 23.9973 0 19.748C0 16.1436 1.08209 12.5772 3.24627 9.04878C5.41045 5.52033 8.35821 2.50407 12.0896 0Z" fill="white"/>
</svg>
