<svg width="35" height="35" viewBox="0 0 35 35" fill="none" xmlns="http://www.w3.org/2000/svg">
<path d="M4.84802 30.0963C3.31281 28.5329 2.12101 26.7517 1.2726 24.7529C0.424202 22.7541 0 20.6874 0 18.553C0 16.4006 0.414102 14.2483 1.2423 12.096C2.07051 9.94364 3.39361 7.95375 5.21162 6.12631C6.78723 4.54252 8.79713 3.31406 11.2413 2.44095C13.6856 1.56784 16.2813 0.948533 19.0285 0.583043C21.7757 0.217553 24.533 0.0246561 27.3004 0.00435107C30.0678 -0.0159539 32.5625 0.0348086 34.7845 0.156638C34.9461 2.34958 35.0168 4.83694 34.9966 7.61872C34.9764 10.4005 34.7643 13.1721 34.3603 15.9336C33.9563 18.6951 33.32 21.3043 32.4514 23.7612C31.5828 26.2181 30.3809 28.2181 28.8457 29.7613C27.0681 31.5888 25.139 32.9187 23.0584 33.7512C20.9778 34.5837 18.902 35 16.8311 35C14.66 35 12.5038 34.5736 10.3626 33.7208C8.22143 32.868 6.38322 31.6598 4.84802 30.0963ZM8.12043 30.6141C9.41324 31.5075 10.8373 32.1776 12.3927 32.6243C13.9482 33.071 15.4329 33.2944 16.8469 33.2944C18.7327 33.2944 20.598 32.9289 22.4427 32.1979C24.2874 31.4669 26.0177 30.2486 27.6337 28.543C28.3532 27.812 29.0829 26.7866 29.8226 25.4668C30.5623 24.147 31.202 22.4211 31.7418 20.289C32.2815 18.157 32.6912 15.5783 32.9708 12.5528C33.2507 9.52739 33.3301 5.92326 33.2089 1.74043C31.2293 1.65921 28.977 1.64906 26.452 1.70997C23.927 1.77089 21.402 1.99424 18.877 2.38003C16.352 2.76583 13.9886 3.34452 11.7867 4.11611C9.58494 4.8877 7.83763 5.92326 6.54483 7.22277C4.76722 9.00961 3.51481 10.8878 2.78761 12.8574C2.06041 14.827 1.69681 16.6443 1.69681 18.3093C1.69681 20.4616 2.13111 22.5124 2.99971 24.4617C3.86831 26.411 5.00962 27.9745 6.42362 29.1522C7.23163 26.3907 8.59513 23.7409 10.5141 21.2028C12.4331 18.6646 15.3117 16.1976 19.1497 13.8016C16.4025 16.1976 14.1199 18.6951 12.3018 21.2941C10.4838 23.8932 9.09003 26.9998 8.12043 30.6141Z" fill="#E3E3E3"/>
</svg>
