<svg width="40" height="35" viewBox="0 0 40 35" fill="none" xmlns="http://www.w3.org/2000/svg">
<path d="M16.505 35V33.4735H31V35H16.505ZM1.46905 10.9034H9.79829V3.27103C9.79829 2.7622 9.63603 2.34424 9.31151 2.01713C8.987 1.69003 8.57234 1.52648 8.06754 1.52648H6.6613C6.30073 1.52648 5.98523 1.61734 5.7148 1.79907C5.44437 1.98079 5.23704 2.2352 5.09281 2.56231L1.46905 10.9034ZM22.9953 29.1122V8.2866C22.9953 7.3053 22.6437 6.46028 21.9406 5.75156C21.2375 5.04283 20.3991 4.68847 19.4256 4.68847H11.3127V10.7944C11.3127 11.2578 11.1573 11.6461 10.8465 11.9594C10.5353 12.2731 10.1498 12.4299 9.69012 12.4299H1.6313C1.01833 12.4299 0.558598 12.1846 0.252111 11.6939C-0.0543768 11.2033 -0.0814198 10.6854 0.170982 10.1402L3.68657 1.96262C3.97503 1.34476 4.38158 0.863188 4.90621 0.517913C5.43084 0.172638 6.01587 0 6.6613 0H8.06754C8.94517 0 9.69643 0.30893 10.3213 0.926791C10.9462 1.54465 11.2766 2.28972 11.3127 3.16199H19.4256C20.838 3.16199 22.0383 3.66028 23.0266 4.65685C24.0153 5.65306 24.5097 6.86298 24.5097 8.2866V29.1122H22.9953Z" fill="white"/>
<path d="M30.9873 33.4863V34.9873H16.5176V33.4863H30.9873ZM6.66113 0.0126953H8.06738C8.94169 0.0126953 9.68998 0.320044 10.3125 0.935547C10.935 1.5511 11.2638 2.2932 11.2998 3.16211L11.3008 3.1748H19.4258C20.8348 3.17485 22.0317 3.67187 23.0176 4.66602C24.0037 5.65972 24.497 6.866 24.4971 8.28613V29.0996H23.0078V8.28613C23.0077 7.3017 22.6544 6.45405 21.9492 5.74316C21.2439 5.03219 20.4027 4.67583 19.4258 4.67578H11.2998V10.7939C11.2998 11.254 11.146 11.6394 10.8379 11.9502C10.5292 12.2613 10.1468 12.4169 9.69043 12.417H1.63086C1.02216 12.4169 0.566665 12.174 0.262695 11.6875C-0.0414548 11.2006 -0.0680932 10.687 0.182617 10.1455L3.69824 1.96777C3.9858 1.35194 4.39062 0.87217 4.91309 0.52832C5.43557 0.184465 6.01815 0.0127253 6.66113 0.0126953ZM6.66113 1.51367C6.29842 1.5137 5.98067 1.60584 5.70801 1.78906C5.43545 1.97223 5.22613 2.22859 5.08105 2.55762L1.45801 10.8984L1.4502 10.916H9.81055V3.27148C9.81055 2.75984 9.64728 2.33846 9.32031 2.00879C8.99321 1.67908 8.57517 1.51367 8.06738 1.51367H6.66113Z" stroke="url(#paint0_linear_374_3850)" stroke-opacity="0.15" stroke-width="0.025"/>
<path d="M30.9873 33.4863V34.9873H16.5176V33.4863H30.9873ZM6.66113 0.0126953H8.06738C8.94169 0.0126953 9.68998 0.320044 10.3125 0.935547C10.935 1.5511 11.2638 2.2932 11.2998 3.16211L11.3008 3.1748H19.4258C20.8348 3.17485 22.0317 3.67187 23.0176 4.66602C24.0037 5.65972 24.497 6.866 24.4971 8.28613V29.0996H23.0078V8.28613C23.0077 7.3017 22.6544 6.45405 21.9492 5.74316C21.2439 5.03219 20.4027 4.67583 19.4258 4.67578H11.2998V10.7939C11.2998 11.254 11.146 11.6394 10.8379 11.9502C10.5292 12.2613 10.1468 12.4169 9.69043 12.417H1.63086C1.02216 12.4169 0.566665 12.174 0.262695 11.6875C-0.0414548 11.2006 -0.0680932 10.687 0.182617 10.1455L3.69824 1.96777C3.9858 1.35194 4.39062 0.87217 4.91309 0.52832C5.43557 0.184465 6.01815 0.0127253 6.66113 0.0126953ZM6.66113 1.51367C6.29842 1.5137 5.98067 1.60584 5.70801 1.78906C5.43545 1.97223 5.22613 2.22859 5.08105 2.55762L1.45801 10.8984L1.4502 10.916H9.81055V3.27148C9.81055 2.75984 9.64728 2.33846 9.32031 2.00879C8.99321 1.67908 8.57517 1.51367 8.06738 1.51367H6.66113Z" stroke="url(#paint1_linear_374_3850)" stroke-opacity="0.15" stroke-width="0.025"/>
<defs>
<linearGradient id="paint0_linear_374_3850" x1="0" y1="0" x2="29.3449" y2="15.9475" gradientUnits="userSpaceOnUse">
<stop stop-color="#E9ECEF"/>
<stop offset="1" stop-color="#E9ECEF" stop-opacity="0"/>
</linearGradient>
<linearGradient id="paint1_linear_374_3850" x1="31" y1="35" x2="11.8695" y2="24.2695" gradientUnits="userSpaceOnUse">
<stop stop-color="#E9ECEF"/>
<stop offset="1" stop-color="#E9ECEF" stop-opacity="0"/>
</linearGradient>
</defs>
</svg>
