<svg width="40" height="35" viewBox="0 0 40 35" fill="none" xmlns="http://www.w3.org/2000/svg">
<path d="M31.5306 19.1837C31.5306 20 31.4541 20.8418 31.301 21.7092C31.148 22.5765 30.8844 23.4694 30.5102 24.3878L29.3878 23.2653C29.6599 22.6871 29.8469 22.0578 29.949 21.3776C30.051 20.6973 30.102 19.966 30.102 19.1837C30.102 17.585 29.8044 16.0544 29.2092 14.5918C28.6139 13.1293 27.7211 11.8367 26.5306 10.7143L17.8571 2.14286L12.9592 6.93878L11.9388 5.91837L17.8571 0.102041L27.551 9.59184C28.7415 10.7143 29.7024 12.1684 30.4337 13.9541C31.165 15.7398 31.5306 17.483 31.5306 19.1837ZM33.9796 35L27.551 28.5714C26.4286 29.7959 24.9915 30.7653 23.2398 31.4796C21.4881 32.1939 19.6939 32.551 17.8571 32.551C14.0476 32.551 10.8163 31.25 8.16327 28.648C5.5102 26.0459 4.18367 22.8912 4.18367 19.1837C4.18367 17.2449 4.58333 15.4337 5.38265 13.75C6.18197 12.0663 7.17687 10.6122 8.36735 9.38776L0 1.02041L1.02041 0L35 33.9796L33.9796 35ZM17.8571 31.1224C19.7619 31.1224 21.4796 30.7568 23.0102 30.0255C24.5408 29.2942 25.7143 28.4694 26.5306 27.551L9.38776 10.4082C8.40136 11.3946 7.52551 12.6446 6.7602 14.1582C5.9949 15.6718 5.61225 17.3469 5.61225 19.1837C5.61225 22.517 6.80272 25.3401 9.18367 27.6531C11.5646 29.966 14.4558 31.1224 17.8571 31.1224Z" fill="white"/>
</svg>
