<svg width="40" height="35" viewBox="0 0 40 35" fill="none" xmlns="http://www.w3.org/2000/svg">
<path d="M13.903 30.6765C14.1716 30.6422 14.3731 30.5538 14.5075 30.4114C14.6418 30.269 14.709 30.0973 14.709 29.8962C14.709 29.6615 14.6287 29.4841 14.4682 29.364C14.3076 29.2439 14.1025 29.201 13.8526 29.2353C12.4757 29.3382 10.9142 28.8836 9.16791 27.8713C7.42164 26.8591 6.34701 25.2034 5.94403 22.9044C5.87687 22.5956 5.78451 22.3725 5.66698 22.2353C5.54944 22.098 5.38993 22.0294 5.18843 22.0294C4.98694 22.0294 4.81063 22.1066 4.65951 22.261C4.5084 22.4154 4.46642 22.6814 4.53358 23.0588C5.03731 25.8382 6.31343 27.8284 8.36194 29.0294C10.4104 30.2304 12.2575 30.7794 13.903 30.6765ZM13.4909 35C9.63504 35 6.42257 33.6429 3.85354 30.9287C1.28451 28.2145 0 24.8363 0 20.7941C0 17.9804 1.1166 14.8493 3.34981 11.4007C5.58302 7.95221 8.96642 4.15196 13.5 0C18.0336 4.15196 21.417 7.95221 23.6502 11.4007C25.8834 14.8493 27 17.9804 27 20.7941C27 24.8363 25.7125 28.2145 23.1374 30.9287C20.562 33.6429 17.3465 35 13.4909 35ZM13.5 33.5588C16.9925 33.5588 19.8806 32.3493 22.1642 29.9301C24.4478 27.511 25.5896 24.4657 25.5896 20.7941C25.5896 18.2892 24.5737 15.4583 22.542 12.3015C20.5103 9.14461 17.4963 5.69608 13.5 1.95588C9.50373 5.69608 6.48974 9.14461 4.45802 12.3015C2.42631 15.4583 1.41045 18.2892 1.41045 20.7941C1.41045 24.4657 2.55224 27.511 4.83582 29.9301C7.1194 32.3493 10.0075 33.5588 13.5 33.5588Z" fill="white"/>
</svg>
