<svg width="40" height="35" viewBox="0 0 40 35" fill="none" xmlns="http://www.w3.org/2000/svg">
<path d="M19.5 35C17.5584 35 15.9231 34.3294 14.593 32.9882C13.2635 31.647 12.5991 29.9971 12.5991 28.0385H1.39286C1.04186 28.0385 0.7215 27.8929 0.433179 27.6017C0.144161 27.3105 0 26.9878 0 26.6329C0 21.3535 1.80375 16.7335 5.41334 12.7736C9.02154 8.8137 13.4849 6.7704 18.8036 6.643V0H20.1964V6.643C25.5144 6.7704 29.9778 8.8137 33.5867 12.7736C37.1963 16.7335 39 21.3535 39 26.6336C39 26.9871 38.8558 27.3105 38.5668 27.6017C38.2785 27.8929 37.9588 28.0385 37.6071 28.0385H26.4016C26.4016 29.9971 25.7365 31.647 24.407 32.9875C23.0769 34.3301 21.4409 35 19.5 35ZM1.39286 26.6329H37.6071C37.6071 21.4809 35.848 17.0954 32.3296 13.4764C28.8113 9.8574 24.5373 8.0472 19.5084 8.0472C14.4801 8.0472 10.2041 9.8567 6.67945 13.4764C3.15482 17.0954 1.39286 21.4809 1.39286 26.6329ZM19.516 33.5951C21.0245 33.5951 22.3171 33.0484 23.3937 31.955C24.4697 30.8623 25.0081 29.5561 25.0081 28.0385H13.9919C13.9919 29.5715 14.5352 30.8805 15.6216 31.9662C16.7087 33.0519 18.0069 33.5951 19.516 33.5951Z" fill="white"/>
</svg>
