<svg width="29" height="35" viewBox="0 0 29 35" fill="none" xmlns="http://www.w3.org/2000/svg">
<path d="M3.24627 35C2.34453 35 1.57805 34.7015 0.946828 34.1045C0.315609 33.5076 0 32.7827 0 31.9298V14.7368C0 13.884 0.315609 13.1591 0.946828 12.5621C1.57805 11.9652 2.34453 11.6667 3.24627 11.6667H6.49254V7.5731C6.49254 5.45809 7.26803 3.66715 8.81903 2.20029C10.37 0.733431 12.2637 0 14.5 0C16.7363 0 18.63 0.733431 20.181 2.20029C21.732 3.66715 22.5075 5.45809 22.5075 7.5731V11.6667H25.7537C26.6555 11.6667 27.422 11.9652 28.0532 12.5621C28.6844 13.1591 29 13.884 29 14.7368V31.9298C29 32.7827 28.6844 33.5076 28.0532 34.1045C27.422 34.7015 26.6555 35 25.7537 35H3.24627ZM3.24627 33.5673H25.7537C26.2587 33.5673 26.6735 33.4137 26.9981 33.1067C27.3228 32.7997 27.4851 32.4074 27.4851 31.9298V14.7368C27.4851 14.2593 27.3228 13.867 26.9981 13.5599C26.6735 13.2529 26.2587 13.0994 25.7537 13.0994H3.24627C2.74129 13.0994 2.32649 13.2529 2.00187 13.5599C1.67724 13.867 1.51493 14.2593 1.51493 14.7368V31.9298C1.51493 32.4074 1.67724 32.7997 2.00187 33.1067C2.32649 33.4137 2.74129 33.5673 3.24627 33.5673ZM14.5 26.0965C15.3296 26.0965 16.0239 25.8321 16.583 25.3034C17.1421 24.7746 17.4216 24.1179 17.4216 23.3333C17.4216 22.5487 17.1421 21.8921 16.583 21.3633C16.0239 20.8346 15.3296 20.5702 14.5 20.5702C13.6704 20.5702 12.9761 20.8346 12.417 21.3633C11.8579 21.8921 11.5784 22.5487 11.5784 23.3333C11.5784 24.1179 11.8579 24.7746 12.417 25.3034C12.9761 25.8321 13.6704 26.0965 14.5 26.0965ZM8.00746 11.6667H20.9925V7.5731C20.9925 5.86745 20.3613 4.41764 19.0989 3.22368C17.8364 2.02973 16.3035 1.43275 14.5 1.43275C12.6965 1.43275 11.1636 2.02973 9.90112 3.22368C8.63868 4.41764 8.00746 5.86745 8.00746 7.5731V11.6667Z" fill="white"/>
</svg>
