<svg width="40" height="35" viewBox="0 0 40 35" fill="none" xmlns="http://www.w3.org/2000/svg">
<path d="M8.83548 33.7498H13.1645V28.7497L20.7126 21.1932V12.3298C20.7126 11.8748 20.5175 11.4583 20.1279 11.0796C19.7375 10.7009 19.3082 10.5112 18.8405 10.5112H3.15948C2.6911 10.5112 2.26245 10.7002 1.87213 11.0796C1.48181 11.4583 1.28735 11.8748 1.28735 12.3298V21.1932L8.83548 28.7259V33.7498ZM7.54813 35V29.2614L0 21.7042V12.3298C0 11.5059 0.314387 10.7884 0.943871 10.1773C1.57265 9.5669 2.31142 9.261 3.15948 9.261H6.78735L6.14368 9.8861V0H7.43103V9.261H14.569V0H15.8563V9.8861L15.2126 9.261H18.8405C19.6886 9.261 20.4274 9.5669 21.0568 10.1773C21.6856 10.7884 22 11.5059 22 12.3298V21.7042L14.4519 29.2614V35H7.54813Z" fill="white"/>
</svg>
