<svg width="40" height="35" viewBox="0 0 40 35" fill="none" xmlns="http://www.w3.org/2000/svg">
<path d="M0 35V33.4091H4.5977V0H35.4023V33.4091H40V35H0ZM6.2069 16.9886H33.7931V1.59091H6.2069V16.9886ZM6.2069 33.4091H33.7931V18.5795H20.8046V25.1705C21.2261 25.3598 21.5613 25.625 21.8103 25.9659C22.0594 26.3068 22.1839 26.7045 22.1839 27.1591C22.1839 27.7553 21.9697 28.2642 21.5414 28.6858C21.113 29.1074 20.5958 29.3182 19.9897 29.3182C19.3835 29.3182 18.8697 29.1074 18.4483 28.6858C18.0268 28.2642 17.8161 27.7553 17.8161 27.1591C17.8161 26.7045 17.9406 26.3068 18.1897 25.9659C18.4387 25.625 18.7739 25.3598 19.1954 25.1705V18.5795H6.2069V33.4091Z" fill="#F8F9FA"/>
</svg>
