<svg width="40" height="35" viewBox="0 0 40 35" fill="none" xmlns="http://www.w3.org/2000/svg">
<path d="M3.5 20.9626V14.2246H24.5V20.9626H3.5ZM13.3553 4.11765V0H14.6447V4.11765H13.3553ZM25.4211 8.89037L24.5 7.95455L27.0789 5.33422L28 6.27005L25.4211 8.89037ZM13.3553 35V30.8824H14.6447V35H13.3553ZM27.0789 29.8529L24.5 27.2326L25.4211 26.2968L28 28.9171L27.0789 29.8529ZM2.57895 8.89037L0 6.27005L0.921053 5.33422L3.5 7.95455L2.57895 8.89037ZM0.921053 29.8529L0 28.9171L2.57895 26.2968L3.5 27.2326L0.921053 29.8529ZM4.78947 19.6524H23.2105V15.5348H4.78947V19.6524Z" fill="white"/>
</svg>
