<svg width="40" height="35" viewBox="0 0 40 35" fill="none" xmlns="http://www.w3.org/2000/svg">
<path d="M3.44828 35V31.6788C2.49042 31.6788 1.67625 31.3063 1.00575 30.5611C0.335249 29.816 0 28.9112 0 27.8467V3.83212C0 2.76764 0.335249 1.86283 1.00575 1.1177C1.67625 0.372567 2.49042 0 3.44828 0H36.5517C37.5096 0 38.3238 0.372567 38.9943 1.1177C39.6648 1.86283 40 2.76764 40 3.83212V27.8467C40 28.9112 39.6648 29.816 38.9943 30.5611C38.3238 31.3063 37.5096 31.6788 36.5517 31.6788V35H35.7471L34.6552 31.6788H5.45977L4.25287 35H3.44828ZM3.44828 29.8905H36.5517C37.0881 29.8905 37.5287 29.6989 37.8736 29.3157C38.2184 28.9325 38.3908 28.4428 38.3908 27.8467V3.83212C38.3908 3.23601 38.2184 2.74635 37.8736 2.36314C37.5287 1.97993 37.0881 1.78832 36.5517 1.78832H3.44828C2.91188 1.78832 2.47126 1.97993 2.12644 2.36314C1.78161 2.74635 1.6092 3.23601 1.6092 3.83212V27.8467C1.6092 28.4428 1.78161 28.9325 2.12644 29.3157C2.47126 29.6989 2.91188 29.8905 3.44828 29.8905Z" fill="white"/>
</svg>
