<svg width="28" height="35" viewBox="0 0 28 35" fill="none" xmlns="http://www.w3.org/2000/svg">
<path d="M18.1728 27.0735C18.6646 27.0735 19.0846 26.904 19.4328 26.565C19.7811 26.226 19.9552 25.8142 19.9552 25.3297C19.9552 24.8452 19.7832 24.4314 19.4391 24.0882C19.095 23.7451 18.6771 23.5735 18.1854 23.5735C17.6936 23.5735 17.2736 23.743 16.9254 24.0821C16.5771 24.4211 16.403 24.8328 16.403 25.3174C16.403 25.8019 16.575 26.2157 16.9191 26.5588C17.2632 26.902 17.6811 27.0735 18.1728 27.0735ZM8.67164 27.4338L20.3209 15.9559L19.3284 14.9265L7.62687 26.4559L8.67164 27.4338ZM9.81463 18.8382C10.3064 18.8382 10.7264 18.6687 11.0746 18.3297C11.4229 17.9907 11.597 17.5789 11.597 17.0944C11.597 16.6099 11.425 16.1961 11.0809 15.8529C10.7368 15.5098 10.3189 15.3382 9.82716 15.3382C9.33542 15.3382 8.91542 15.5077 8.56716 15.8468C8.21891 16.1858 8.04478 16.5975 8.04478 17.0821C8.04478 17.5666 8.21682 17.9804 8.5609 18.3235C8.90498 18.6667 9.32289 18.8382 9.81463 18.8382ZM13.9906 35C9.99189 35 6.66045 33.6429 3.99627 30.9287C1.33209 28.2145 0 24.8363 0 20.7941C0 17.9804 1.15796 14.8493 3.47388 11.4007C5.7898 7.95221 9.29851 4.15196 14 0C18.7015 4.15196 22.2102 7.95221 24.5261 11.4007C26.842 14.8493 28 17.9804 28 20.7941C28 24.8363 26.6648 28.2145 23.9943 30.9287C21.3235 33.6429 17.989 35 13.9906 35ZM14 33.5588C17.6219 33.5588 20.6169 32.3493 22.9851 29.9301C25.3532 27.511 26.5373 24.4657 26.5373 20.7941C26.5373 18.2892 25.4838 15.4583 23.3769 12.3015C21.2699 9.14461 18.1443 5.69608 14 1.95588C9.85572 5.69608 6.7301 9.14461 4.62313 12.3015C2.51617 15.4583 1.46269 18.2892 1.46269 20.7941C1.46269 24.4657 2.64677 27.511 5.01493 29.9301C7.38308 32.3493 10.3781 33.5588 14 33.5588Z" fill="#E3E3E3"/>
</svg>
