<svg width="40" height="40" viewBox="0 0 40 40" fill="none" xmlns="http://www.w3.org/2000/svg">
<circle cx="20" cy="20" r="20" fill="url(#paint0_linear_413_4424)"/>
<path d="M20.5557 27.9658V32.1504H19.4443V27.9658H20.5557ZM26.0762 25.3418L28.4521 27.6611L28.5557 27.7617L28.459 27.8691L27.9082 28.4775L27.8027 28.5947L27.6914 28.4824L25.3428 26.1348L25.2422 26.0342L25.3379 25.9287L25.8594 25.3486L25.9639 25.2324L26.0762 25.3418ZM14.0771 25.3428L14.5986 25.8652L14.7021 25.9688L14.6016 26.0742L12.3115 28.4805L12.2051 28.5918L12.0967 28.4824L11.4111 27.7969L11.5176 27.6914L13.8652 25.3428L13.9707 25.2373L14.0771 25.3428ZM20 15.5605C21.237 15.5605 22.2898 15.9909 23.1494 16.8506C24.0091 17.7102 24.4395 18.763 24.4395 20C24.4395 21.237 24.0091 22.2898 23.1494 23.1494C22.2898 24.0091 21.237 24.4395 20 24.4395C18.763 24.4395 17.7102 24.0091 16.8506 23.1494C15.9909 22.2898 15.5605 21.237 15.5605 20C15.5605 18.763 15.9909 17.7102 16.8506 16.8506C17.7102 15.9909 18.763 15.5605 20 15.5605ZM20 16.6719C19.0731 16.6719 18.2905 16.9947 17.6426 17.6426C16.9947 18.2905 16.6719 19.0731 16.6719 20C16.6719 20.9269 16.9947 21.7095 17.6426 22.3574C18.2905 23.0053 19.0731 23.3281 20 23.3281C20.9269 23.3281 21.7095 23.0053 22.3574 22.3574C23.0053 21.7095 23.3281 20.9269 23.3281 20C23.3281 19.0731 23.0053 18.2905 22.3574 17.6426C21.7095 16.9947 20.9269 16.6719 20 16.6719ZM12.0342 19.4443V20.5557H7.84961V19.4443H12.0342ZM32.1504 19.4443V20.5557H27.9658V19.4443H32.1504ZM12.3086 11.5176L14.6572 13.8652L14.7578 13.9658L14.6621 14.0713L14.1406 14.6514L14.0361 14.7676L13.9238 14.6582L11.5479 12.3389L11.4443 12.2383L11.541 12.1309L12.0918 11.5225L12.1973 11.4053L12.3086 11.5176ZM27.8691 11.541L28.4775 12.0918L28.5947 12.1973L28.4824 12.3086L26.1348 14.6572L26.0342 14.7578L25.9287 14.6621L25.3486 14.1406L25.2324 14.0361L25.3418 13.9238L27.6611 11.5479L27.7617 11.4443L27.8691 11.541ZM20.5557 7.84961V12.0342H19.4443V7.84961H20.5557Z" fill="white" stroke="white" stroke-width="0.3"/>
<defs>
<linearGradient id="paint0_linear_413_4424" x1="0" y1="0" x2="40" y2="40" gradientUnits="userSpaceOnUse">
<stop stop-color="#A9D2FF"/>
<stop offset="1" stop-color="#657E99"/>
</linearGradient>
</defs>
</svg>
