<svg width="40" height="40" viewBox="0 0 40 40" fill="none" xmlns="http://www.w3.org/2000/svg">
<circle cx="20" cy="20" r="20" fill="url(#paint0_linear_413_4425)" fill-opacity="0.5"/>
<path d="M19.9941 7.84961C21.6726 7.84961 23.2528 8.16868 24.7334 8.80664C26.2112 9.44345 27.4981 10.3089 28.5928 11.4023C29.6876 12.4958 30.5539 13.7811 31.1914 15.2568C31.8305 16.7358 32.1504 18.3153 32.1504 19.9941C32.1504 21.6726 31.8313 23.2528 31.1934 24.7334C30.5565 26.2112 29.6911 27.4981 28.5977 28.5928C27.5042 29.6876 26.2189 30.5539 24.7432 31.1914C23.2642 31.8305 21.6847 32.1504 20.0059 32.1504C18.3274 32.1504 16.7472 31.8313 15.2666 31.1934C13.7888 30.5565 12.5019 29.6911 11.4072 28.5977C10.3124 27.5042 9.44615 26.2189 8.80859 24.7432C8.16955 23.2642 7.84961 21.6847 7.84961 20.0059C7.84961 18.3274 8.16868 16.7472 8.80664 15.2666C9.44345 13.7888 10.3089 12.5019 11.4023 11.4072C12.4958 10.3124 13.7811 9.44615 15.2568 8.80859C16.7358 8.16955 18.3153 7.84961 19.9941 7.84961ZM20.6328 30.875C21.7126 30.8182 22.7559 30.6246 23.7627 30.2891C24.6853 29.9815 25.525 29.5212 26.2822 28.9082H20.6328V30.875ZM19.3672 9.13965C16.5302 9.5498 14.1231 10.7387 12.1406 12.71C10.1231 14.7162 9.11523 17.1432 9.11523 20C9.11523 22.8568 10.1231 25.2838 12.1406 27.29C14.1231 29.2613 16.5303 30.4492 19.3672 30.8594V9.13965ZM20.6328 27.6436H27.7305C28.189 27.2019 28.5951 26.7295 28.9463 26.2246C29.2648 25.7667 29.5366 25.2811 29.7676 24.7705H20.6328V27.6436ZM20.6328 23.5049H30.3047C30.4689 23.017 30.595 22.5299 30.6797 22.043C30.7614 21.5729 30.824 21.1028 30.8691 20.6328H20.6328V23.5049ZM20.6328 19.3672H30.8691C30.824 18.8972 30.7614 18.4271 30.6797 17.957C30.595 17.4701 30.4689 16.983 30.3047 16.4951H20.6328V19.3672ZM20.6328 15.2295H29.7676C29.5366 14.7189 29.2648 14.2333 28.9463 13.7754C28.5951 13.2705 28.189 12.7981 27.7305 12.3564H20.6328V15.2295ZM20.6328 11.0918H26.2822C25.525 10.4788 24.6853 10.0185 23.7627 9.71094C22.7559 9.37538 21.7127 9.18078 20.6328 9.12402V11.0918Z" fill="white" stroke="white" stroke-width="0.3"/>
<defs>
<linearGradient id="paint0_linear_413_4425" x1="0" y1="0" x2="40" y2="40" gradientUnits="userSpaceOnUse">
<stop stop-color="#A9D2FF"/>
<stop offset="1" stop-color="#6AA5E6"/>
</linearGradient>
</defs>
</svg>
