<svg width="40" height="40" viewBox="0 0 40 40" fill="none" xmlns="http://www.w3.org/2000/svg">
<circle cx="20" cy="20" r="20" fill="url(#paint0_linear_413_4426)" fill-opacity="0.25"/>
<path d="M15.6904 8.62207C15.6905 10.7209 16.0775 12.728 16.8506 14.6436C17.6234 16.5582 18.7487 18.2561 20.2266 19.7383C21.7047 21.2207 23.3983 22.349 25.3076 23.124C27.2177 23.8994 29.2187 24.2871 31.3115 24.2871H31.5322L31.4502 24.4932C30.521 26.8227 29.0273 28.6826 26.9707 30.0693C24.9141 31.456 22.6288 32.1504 20.1201 32.1504C18.4251 32.1503 16.8324 31.83 15.3438 31.1885C13.8575 30.548 12.5561 29.6677 11.4404 28.5488C10.3248 27.43 9.44713 26.1251 8.80859 24.6348C8.16896 23.1419 7.84962 21.5446 7.84961 19.8447C7.84961 17.3292 8.54128 15.038 9.92383 12.9756C11.3066 10.9129 13.1621 9.41441 15.4854 8.48242L15.6904 8.39941V8.62207ZM14.4834 10.3535C12.8354 11.3199 11.5385 12.6257 10.5918 14.2734C9.60652 15.9885 9.11426 17.8448 9.11426 19.8447C9.11429 22.9134 10.1834 25.517 12.3242 27.6641C14.465 29.811 17.0608 30.8827 20.1201 30.8828C22.1138 30.8828 23.9589 30.384 25.6572 29.3848C27.2907 28.4237 28.5871 27.1153 29.5508 25.46C27.6448 25.2571 25.8343 24.7549 24.1201 23.9512C22.3365 23.1149 20.7376 21.9887 19.3252 20.5723C17.913 19.156 16.7899 17.5583 15.9561 15.7812C15.1548 14.0735 14.6645 12.264 14.4834 10.3535ZM30.626 14.8008L32.1064 16.2852L32.2119 16.3916L32.1064 16.4971L30.626 17.9824L30.5195 18.0889L30.4131 17.9824L28.9326 16.4971L28.8271 16.3916L28.9326 16.2852L30.4131 14.8008L30.5195 14.6943L30.626 14.8008ZM23.7393 7.89453L26.5967 10.7607L26.7021 10.8662L26.5967 10.9717L23.7393 13.8379L23.6328 13.9443L23.5264 13.8379L20.6689 10.9717L20.5625 10.8662L20.6689 10.7607L23.5264 7.89453L23.6328 7.78711L23.7393 7.89453Z" fill="white" stroke="white" stroke-width="0.3"/>
<defs>
<linearGradient id="paint0_linear_413_4426" x1="0" y1="0" x2="40" y2="40" gradientUnits="userSpaceOnUse">
<stop stop-color="#A9D2FF"/>
<stop offset="1" stop-color="#6AA5E6"/>
</linearGradient>
</defs>
</svg>
