<svg width="16" height="16" viewBox="0 0 16 16" fill="none" xmlns="http://www.w3.org/2000/svg">
<path d="M13.0537 2.94531C13.7088 3.59935 14.2323 4.37378 14.5947 5.22559L14.7246 5.55273C15.0082 6.32308 15.1504 7.14212 15.1504 8.00879C15.1504 8.98823 14.9626 9.91424 14.5869 10.7861C14.2126 11.6552 13.7029 12.4122 13.0596 13.0566C12.4157 13.7011 11.6598 14.2111 10.792 14.5859C9.92118 14.9623 8.99044 15.1504 8.00293 15.1504C7.01588 15.1503 6.08561 14.9626 5.21387 14.5869C4.34463 14.2121 3.58785 13.7025 2.94336 13.0586C2.29882 12.4146 1.7889 11.6575 1.41406 10.7891C1.03779 9.91782 0.849609 8.98764 0.849609 8C0.849609 7.01532 1.03487 6.08991 1.40527 5.22559L1.54883 4.91016C1.90071 4.18235 2.37303 3.51764 2.94629 2.94531L3.05176 2.83984L3.1582 2.94531L3.55957 3.34766L3.66602 3.4541L3.55957 3.56055C2.98495 4.13446 2.52509 4.81258 2.2041 5.55859H2.20312C1.87659 6.31232 1.71289 7.1258 1.71289 8C1.71289 9.75808 2.32162 11.2415 3.54004 12.46C4.75844 13.6784 6.24218 14.2871 8 14.2871C9.7581 14.2871 11.2416 13.6781 12.46 12.46C13.6783 11.2413 14.2871 9.75802 14.2871 8C14.2871 7.12073 14.1232 6.30655 13.7969 5.55566L13.7959 5.55469C13.4743 4.8102 13.0144 4.13351 12.4404 3.56055L12.334 3.4541L12.4404 3.34766L12.8418 2.94531L12.9482 2.83984L13.0537 2.94531ZM8.43164 0.849609V8.95508H7.56836V0.849609H8.43164Z" fill="white" stroke="white" stroke-width="0.3"/>
</svg>
