<svg width="21" height="22" viewBox="0 0 21 22" fill="none" xmlns="http://www.w3.org/2000/svg">
<path d="M12.4531 0.849609L12.4697 0.981445L12.8555 4.1377C13.32 4.30525 13.7322 4.49395 14.0898 4.70703C14.4461 4.91931 14.8123 5.18801 15.1904 5.50977L18.123 4.30957L18.2441 4.25977L18.3096 4.37305L20.1299 7.53418L20.1963 7.64844L20.0908 7.72852L17.5244 9.67969C17.5861 9.91835 17.6239 10.1406 17.6328 10.3467C17.6424 10.569 17.6475 10.787 17.6475 11C17.6475 11.1965 17.6374 11.4069 17.6182 11.6309C17.6005 11.8358 17.5653 12.0825 17.5166 12.3711L20.0332 14.2715L20.1387 14.3506L20.0732 14.4648L18.2529 17.6826L18.1865 17.8008L18.0625 17.7471L15.1895 16.4902C14.8095 16.8132 14.4291 17.0914 14.0469 17.3213C13.6671 17.5496 13.2694 17.7292 12.8555 17.8643L12.4697 21.0186L12.4531 21.1504H8.54688L8.53125 21.0186L8.14355 17.8936C7.75808 17.7727 7.33781 17.5886 6.88574 17.3379C6.42919 17.0846 6.04182 16.8107 5.72168 16.5195L2.87988 17.7471L2.75586 17.8008L2.68945 17.6826L0.869141 14.4648L0.804688 14.3506L0.90918 14.2715L3.36914 12.3984C3.33688 12.1941 3.30817 11.9822 3.2832 11.7637C3.2542 11.5096 3.23926 11.2642 3.23926 11.0283C3.23928 10.8111 3.25419 10.5802 3.2832 10.3359C3.30901 10.1187 3.33849 9.87377 3.37207 9.60156L0.90918 7.72852L0.803711 7.64844L0.870117 7.53418L2.69043 4.37305L2.75684 4.25781L2.87891 4.31055L5.69629 5.50977C6.06276 5.20238 6.45844 4.9246 6.88379 4.67773C7.30503 4.43327 7.71597 4.24289 8.11621 4.10645L8.53125 0.980469L8.54785 0.849609H12.4531ZM9.16992 4.9248L9.1582 5.0332L9.05078 5.05469C8.4964 5.1667 7.98969 5.35336 7.53027 5.61328C7.07116 5.87305 6.59817 6.24645 6.1123 6.7373L6.04102 6.80957L5.94727 6.77051L3.22461 5.61426L2.21973 7.33984L4.58887 9.12695L4.67871 9.19531L4.63867 9.30078C4.54884 9.53682 4.48491 9.80243 4.44824 10.0986C4.41113 10.3986 4.39259 10.7086 4.39258 11.0283C4.39258 11.309 4.41118 11.5902 4.44824 11.8711C4.48526 12.1516 4.54045 12.4226 4.61426 12.6836L4.6416 12.7803L4.56152 12.8428L2.21875 14.6582L3.22363 16.3838L5.91797 15.2295L6.0127 15.1895L6.08398 15.2627C6.53109 15.7144 6.98532 16.0689 7.44531 16.3291C7.79102 16.5247 8.17427 16.6896 8.5957 16.8232L9.0293 16.9463L9.12891 16.9717L9.1416 17.0742L9.49512 20.0449H11.4502L11.8584 17.043L11.8721 16.9443L11.9688 16.918C12.5265 16.7677 13.0215 16.5665 13.4541 16.3154C13.8862 16.0646 14.3462 15.7044 14.833 15.2314L14.9043 15.1611L14.9971 15.2012L17.7178 16.3838L18.7217 14.6592L16.3252 12.8438L16.2441 12.7822L16.2715 12.6846C16.3648 12.3453 16.4248 12.047 16.4521 11.7891C16.48 11.5261 16.4941 11.2629 16.4941 11C16.4941 10.7177 16.4798 10.4554 16.4521 10.2129C16.4249 9.97463 16.3657 9.69517 16.2725 9.375L16.2432 9.27637L16.3252 9.21387L18.7793 7.33984L17.7744 5.61426L14.9668 6.79883L14.8682 6.84082L14.7969 6.76074C14.4879 6.41181 14.0503 6.06629 13.4805 5.72656C12.9115 5.38736 12.4015 5.17537 11.9492 5.08398L11.8418 5.0625L11.8301 4.95312L11.5029 1.95508H9.49707L9.16992 4.9248ZM10.4434 8.32129C11.1839 8.32135 11.8149 8.58111 12.3271 9.09863C12.8394 9.61619 13.0957 10.253 13.0957 11C13.0957 11.747 12.8394 12.3838 12.3271 12.9014C11.8149 13.4189 11.1839 13.6787 10.4434 13.6787C9.70265 13.6787 9.07095 13.419 8.55859 12.9014C8.04642 12.3838 7.79004 11.7469 7.79004 11C7.79004 10.2531 8.04642 9.61616 8.55859 9.09863C9.07095 8.58101 9.70265 8.32129 10.4434 8.32129Z" fill="#E3E3E3" stroke="white" stroke-width="0.3"/>
</svg>
