<svg width="34" height="35" viewBox="0 0 34 35" fill="none" xmlns="http://www.w3.org/2000/svg">
<path d="M16.4371 13.75V12.1591H27.245V13.75H16.4371ZM16.4371 5.34091V3.75H34V5.34091H16.4371ZM8.33113 35C6.00442 35 4.03422 34.1856 2.42053 32.5568C0.806843 30.928 0 28.9394 0 26.5909C0 25.0758 0.39404 23.6553 1.18212 22.3295C1.9702 21.0038 3.07726 19.9242 4.50331 19.0909V3.86364C4.50331 2.76515 4.86921 1.84659 5.60099 1.10795C6.33278 0.369318 7.24283 0 8.33113 0C9.41943 0 10.3295 0.369318 11.0613 1.10795C11.793 1.84659 12.1589 2.76515 12.1589 3.86364V19.0909C13.585 19.9242 14.6921 21.0038 15.4801 22.3295C16.2682 23.6553 16.6623 25.0758 16.6623 26.5909C16.6623 28.9394 15.8554 30.928 14.2417 32.5568C12.628 34.1856 10.6578 35 8.33113 35ZM1.57616 26.5909H15.0861C15.0861 25.4545 14.7671 24.3466 14.1291 23.267C13.4912 22.1875 12.5717 21.2121 11.3709 20.3409L10.5828 19.7727V3.86364C10.5828 3.2197 10.367 2.67992 9.93543 2.24432C9.50386 1.80871 8.96909 1.59091 8.33113 1.59091C7.69316 1.59091 7.15839 1.80871 6.72682 2.24432C6.29525 2.67992 6.07947 3.2197 6.07947 3.86364V19.7727L5.29139 20.3409C4.09051 21.2121 3.17108 22.1875 2.53311 23.267C1.89514 24.3466 1.57616 25.4545 1.57616 26.5909Z" fill="#E3E3E3"/>
</svg>
