<svg width="35" height="35" viewBox="0 0 35 35" fill="none" xmlns="http://www.w3.org/2000/svg">
<path d="M16.771 27.7811C15.9932 27.7811 15.3066 27.5441 14.7111 27.0702C14.1156 26.5962 13.7085 26.0068 13.4897 25.3019H14.5835C14.7779 25.7394 15.0696 26.0919 15.4585 26.3592C15.8474 26.6266 16.2849 26.7603 16.771 26.7603C17.4272 26.7603 17.9924 26.5233 18.4663 26.0493C18.9403 25.5754 19.1772 25.0103 19.1772 24.354C19.1772 23.6978 18.9403 23.1327 18.4663 22.6587C17.9924 22.1847 17.4272 21.9478 16.771 21.9478H3.86475V20.9269H16.771C17.7189 20.9269 18.5271 21.2611 19.1955 21.9295C19.8639 22.5979 20.1981 23.4061 20.1981 24.354C20.1981 25.3019 19.8639 26.1101 19.1955 26.7785C18.5271 27.4469 17.7189 27.7811 16.771 27.7811ZM3.86475 14.0728V13.0519H22.6043C23.4793 13.0519 24.2207 12.7481 24.8283 12.1405C25.4359 11.5328 25.7397 10.7915 25.7397 9.9165C25.7397 9.0415 25.4359 8.30018 24.8283 7.69255C24.2207 7.08491 23.4793 6.78109 22.6043 6.78109C21.8752 6.78109 21.2432 6.98768 20.7085 7.40088C20.1738 7.81407 19.8092 8.33664 19.6147 8.96859H18.521C18.7397 8.02067 19.2259 7.24897 19.9793 6.65348C20.7328 6.058 21.6078 5.76025 22.6043 5.76025C23.771 5.76025 24.7554 6.1613 25.5575 6.96338C26.3595 7.76546 26.7606 8.74984 26.7606 9.9165C26.7606 11.0832 26.3595 12.0675 25.5575 12.8696C24.7554 13.6717 23.771 14.0728 22.6043 14.0728H3.86475ZM27.9272 25.229V24.1353C28.5592 23.9408 29.0818 23.5762 29.495 23.0415C29.9082 22.5068 30.1147 21.8748 30.1147 21.1457C30.1147 20.2707 29.8109 19.5294 29.2033 18.9217C28.5957 18.3141 27.8543 18.0103 26.9793 18.0103H3.86475V16.9894H26.9793C28.146 16.9894 29.1304 17.3905 29.9325 18.1925C30.7345 18.9946 31.1356 19.979 31.1356 21.1457C31.1356 22.1422 30.8378 23.0172 30.2424 23.7707C29.6469 24.5241 28.8752 25.0103 27.9272 25.229Z" fill="white"/>
</svg>
