<svg width="35" height="35" viewBox="0 0 35 35" fill="none" xmlns="http://www.w3.org/2000/svg">
<path d="M16.9897 8.09391V3.42725H18.0106V8.09391H16.9897ZM24.5002 11.2293L23.8075 10.5366L27.0522 7.146L27.8179 7.91162L24.5002 11.2293ZM26.9064 18.0106V16.9897H31.5731V18.0106H26.9064ZM16.9897 31.5731V26.9429H18.0106V31.5731H16.9897ZM10.5731 11.1929L7.146 7.94808L7.94808 7.21891L11.2658 10.5002L10.5731 11.1929ZM27.0522 27.8543L23.8075 24.4637L24.5002 23.8075L27.7814 27.0522L27.0522 27.8543ZM3.42725 18.0106V16.9897H8.09391V18.0106H3.42725ZM7.91162 27.8543L7.21891 27.0522L10.4637 23.8075L10.8283 24.172L11.2293 24.5366L7.91162 27.8543ZM17.5089 24.3543C15.6072 24.3543 13.988 23.6888 12.6512 22.3579C11.3144 21.0267 10.646 19.4103 10.646 17.5089C10.646 15.6072 11.3115 13.988 12.6425 12.6512C13.9737 11.3144 15.59 10.646 17.4914 10.646C19.3931 10.646 21.0123 11.3115 22.3491 12.6425C23.6859 13.9737 24.3543 15.59 24.3543 17.4914C24.3543 19.3931 23.6888 21.0123 22.3579 22.3491C21.0267 23.6859 19.4103 24.3543 17.5089 24.3543ZM17.5002 23.3335C19.1043 23.3335 20.4776 22.7623 21.62 21.62C22.7623 20.4776 23.3335 19.1043 23.3335 17.5002C23.3335 15.896 22.7623 14.5227 21.62 13.3804C20.4776 12.238 19.1043 11.6668 17.5002 11.6668C15.896 11.6668 14.5227 12.238 13.3804 13.3804C12.238 14.5227 11.6668 15.896 11.6668 17.5002C11.6668 19.1043 12.238 20.4776 13.3804 21.62C14.5227 22.7623 15.896 23.3335 17.5002 23.3335Z" fill="white"/>
</svg>
