<svg width="35" height="35" viewBox="0 0 35 35" fill="none" xmlns="http://www.w3.org/2000/svg">
<path d="M9.479 27.2707C7.77761 27.2707 6.33143 26.6752 5.14046 25.4842C3.94949 24.2932 3.354 22.8471 3.354 21.1457C3.354 19.5415 3.92518 18.1196 5.06755 16.88C6.20991 15.6405 7.60748 15.0207 9.26025 15.0207C9.50331 12.9304 10.4087 11.1925 11.9764 9.80713C13.5441 8.42171 15.3853 7.729 17.4998 7.729C19.8089 7.729 21.7715 8.53716 23.3879 10.1535C25.0042 11.7698 25.8123 13.7325 25.8123 16.0415V17.9373H26.979C28.2915 17.9373 29.3974 18.387 30.2967 19.2863C31.196 20.1856 31.6457 21.2915 31.6457 22.604C31.6457 23.9165 31.196 25.0224 30.2967 25.9217C29.3974 26.821 28.2915 27.2707 26.979 27.2707H9.479ZM9.479 26.2498H26.979C27.9998 26.2498 28.8627 25.8974 29.5675 25.1925C30.2724 24.4877 30.6248 23.6248 30.6248 22.604C30.6248 21.5832 30.2724 20.7203 29.5675 20.0155C28.8627 19.3106 27.9998 18.9582 26.979 18.9582H24.7915V16.0415C24.7915 14.0241 24.0806 12.3045 22.6587 10.8826C21.2368 9.46077 19.5172 8.74984 17.4998 8.74984C15.4825 8.74984 13.7629 9.46077 12.341 10.8826C10.9191 12.3045 10.2082 14.0241 10.2082 16.0415H9.479C8.06928 16.0415 6.86616 16.5398 5.86963 17.5363C4.8731 18.5328 4.37484 19.7359 4.37484 21.1457C4.37484 22.5554 4.8731 23.7585 5.86963 24.755C6.86616 25.7516 8.06928 26.2498 9.479 26.2498Z" fill="white"/>
</svg>
