<svg width="35" height="35" viewBox="0 0 35 35" fill="none" xmlns="http://www.w3.org/2000/svg">
<path d="M26.2502 26.9793C26.0436 26.9793 25.8704 26.9095 25.7306 26.7697C25.5909 26.6299 25.521 26.4568 25.521 26.2502C25.521 26.0436 25.5909 25.8704 25.7306 25.7306C25.8704 25.5909 26.0436 25.521 26.2502 25.521C26.4568 25.521 26.6299 25.5909 26.7697 25.7306C26.9095 25.8704 26.9793 26.0436 26.9793 26.2502C26.9793 26.4568 26.9095 26.6299 26.7697 26.7697C26.6299 26.9095 26.4568 26.9793 26.2502 26.9793ZM10.2085 31.3543C10.0019 31.3543 9.82872 31.2845 9.68897 31.1447C9.54921 31.0049 9.47933 30.8318 9.47933 30.6252C9.47933 30.4186 9.54921 30.2454 9.68897 30.1056C9.82872 29.9659 10.0019 29.896 10.2085 29.896C10.4151 29.896 10.5883 29.9659 10.728 30.1056C10.8678 30.2454 10.9377 30.4186 10.9377 30.6252C10.9377 30.8318 10.8678 31.0049 10.728 31.1447C10.5883 31.2845 10.4151 31.3543 10.2085 31.3543ZM8.75016 26.7606C8.60555 26.7606 8.48426 26.7115 8.38631 26.6133C8.2886 26.5153 8.23975 26.3938 8.23975 26.2487C8.23975 26.1038 8.2886 25.9828 8.38631 25.8856C8.48426 25.7884 8.60555 25.7397 8.75016 25.7397H21.8752C22.0198 25.7397 22.1409 25.7888 22.2387 25.887C22.3366 25.985 22.3856 26.1065 22.3856 26.2516C22.3856 26.3965 22.3366 26.5175 22.2387 26.6147C22.1409 26.712 22.0198 26.7606 21.8752 26.7606H8.75016ZM14.5835 31.1356C14.4389 31.1356 14.3176 31.0865 14.2196 30.9883C14.1219 30.8903 14.0731 30.7688 14.0731 30.6237C14.0731 30.4788 14.1219 30.3578 14.2196 30.2606C14.3176 30.1634 14.4389 30.1147 14.5835 30.1147H24.7918C24.9364 30.1147 25.0576 30.1638 25.1553 30.262C25.2533 30.36 25.3022 30.4815 25.3022 30.6266C25.3022 30.7715 25.2533 30.8925 25.1553 30.9897C25.0576 31.087 24.9364 31.1356 24.7918 31.1356H14.5835ZM10.9377 22.3856C8.96891 22.3856 7.29791 21.6989 5.92464 20.3257C4.55138 18.9524 3.86475 17.2814 3.86475 15.3127C3.86475 13.4654 4.49061 11.8734 5.74235 10.5366C6.99409 9.19982 8.56787 8.43419 10.4637 8.23975C11.1708 6.87693 12.1375 5.80712 13.364 5.03032C14.5902 4.25327 15.9643 3.86475 17.4863 3.86475C19.5615 3.86475 21.3344 4.55745 22.8049 5.94287C24.2753 7.32829 25.12 9.05398 25.3387 11.12C27.1616 11.2172 28.5835 11.8187 29.6043 12.9246C30.6252 14.0305 31.1356 15.3163 31.1356 16.7819C31.1356 18.3302 30.5897 19.6512 29.4979 20.745C28.4063 21.8387 27.0807 22.3856 25.521 22.3856H10.9377ZM10.9377 21.3647H25.521C26.7849 21.3647 27.8665 20.9151 28.7658 20.0158C29.6651 19.1165 30.1147 18.0349 30.1147 16.771C30.1147 15.5071 29.6651 14.4255 28.7658 13.5262C27.8665 12.6269 26.7849 12.1772 25.521 12.1772H24.2814V11.6668C24.2814 9.80211 23.6169 8.20572 22.2879 6.87766C20.9586 5.54961 19.3609 4.88558 17.4947 4.88558C16.1372 4.88558 14.9009 5.25417 13.7858 5.99136C12.6704 6.72879 11.8304 7.72131 11.2658 8.96891L11.1513 9.26058H10.8647C9.21829 9.31818 7.81015 9.93056 6.64032 11.0977C5.47049 12.2649 4.88558 13.6699 4.88558 15.3127C4.88558 16.9842 5.47633 18.4108 6.65782 19.5925C7.83956 20.774 9.26617 21.3647 10.9377 21.3647Z" fill="white"/>
</svg>
