<svg width="35" height="35" viewBox="0 0 35 35" fill="none" xmlns="http://www.w3.org/2000/svg">
<path d="M19.3595 31.6095L17.9377 30.1877L19.3595 28.7658L20.7814 30.1877L19.3595 31.6095ZM14.3283 29.422L13.5627 28.6564L17.0991 25.12L17.8647 25.8856L14.3283 29.422ZM23.7345 27.2345L22.3127 25.8127L23.7345 24.3908L25.1564 25.8127L23.7345 27.2345ZM10.6095 27.2345L9.18766 25.8127L10.6095 24.3908L12.0314 25.8127L10.6095 27.2345ZM10.9377 22.3856C8.96891 22.3856 7.29791 21.6989 5.92464 20.3257C4.55138 18.9524 3.86475 17.2814 3.86475 15.3127C3.86475 13.4654 4.49061 11.8734 5.74235 10.5366C6.99409 9.19982 8.56787 8.43419 10.4637 8.23975C11.1686 6.87863 12.1347 5.80919 13.3621 5.03141C14.5896 4.25363 15.9689 3.86475 17.5002 3.86475C19.5661 3.86475 21.3344 4.55745 22.8049 5.94287C24.2753 7.32829 25.12 9.05398 25.3387 11.12C27.1616 11.2172 28.5835 11.8187 29.6043 12.9246C30.6252 14.0305 31.1356 15.3127 31.1356 16.771C31.1356 18.3266 30.5887 19.6512 29.495 20.745C28.4012 21.8387 27.0766 22.3856 25.521 22.3856H10.9377ZM10.9377 21.3647H25.521C26.7849 21.3647 27.8665 20.9151 28.7658 20.0158C29.6651 19.1165 30.1147 18.0349 30.1147 16.771C30.1147 15.5071 29.6651 14.4255 28.7658 13.5262C27.8665 12.6269 26.7849 12.1772 25.521 12.1772H24.2814V11.6668C24.2814 9.7953 23.6191 8.19721 22.2944 6.87256C20.9698 5.54791 19.3717 4.88558 17.5002 4.88558C16.1391 4.88558 14.8995 5.25624 13.7814 5.99756C12.6634 6.73888 11.8248 7.72933 11.2658 8.96891L11.1564 9.26058H10.8647C9.21197 9.30919 7.80225 9.91683 6.63558 11.0835C5.46891 12.2502 4.88558 13.6599 4.88558 15.3127C4.88558 16.9897 5.47499 18.4177 6.65381 19.5965C7.83263 20.7753 9.26058 21.3647 10.9377 21.3647Z" fill="white"/>
</svg>
