<svg width="35" height="35" viewBox="0 0 35 35" fill="none" xmlns="http://www.w3.org/2000/svg">
<path d="M21.328 10.9012L18.3019 7.87516L21.328 4.84912L24.354 7.87516L21.328 10.9012ZM28.6196 15.2762L27.0519 13.7085L28.6196 12.1408L30.1873 13.7085L28.6196 15.2762ZM17.6092 30.1877C15.8349 30.1877 14.17 29.8535 12.6144 29.1851C11.0589 28.5167 9.69775 27.5991 8.53109 26.4325C7.36442 25.2658 6.44689 23.9047 5.77848 22.3491C5.11008 20.7936 4.77588 19.1286 4.77588 17.3543C4.77588 14.7293 5.49897 12.3413 6.94515 10.1903C8.39133 8.03923 10.3297 6.47759 12.7603 5.50537C12.7603 7.74148 13.1734 9.88037 13.9998 11.922C14.8262 13.9637 16.0294 15.7745 17.6092 17.3543C19.1891 18.9342 20.9998 20.1373 23.0415 20.9637C25.0832 21.7901 27.2221 22.2033 29.4582 22.2033C28.4859 24.6338 26.9243 26.5722 24.7733 28.0184C22.6222 29.4646 20.2342 30.1877 17.6092 30.1877ZM17.6092 29.1668C19.7481 29.1668 21.729 28.6321 23.5519 27.5627C25.3748 26.4932 26.8089 25.0227 27.854 23.1512C25.7637 22.9568 23.7828 22.422 21.9113 21.547C20.0398 20.672 18.3627 19.4932 16.88 18.0106C15.3974 16.5279 14.2186 14.8569 13.3436 12.9976C12.4686 11.1382 11.946 9.16336 11.7759 7.07308C9.90435 8.11822 8.43994 9.55832 7.38265 11.3934C6.32536 13.2285 5.79671 15.2154 5.79671 17.3543C5.79671 20.6356 6.94515 23.4246 9.24203 25.7215C11.5389 28.0184 14.328 29.1668 17.6092 29.1668Z" fill="white"/>
</svg>
