<svg width="35" height="35" viewBox="0 0 35 35" fill="none" xmlns="http://www.w3.org/2000/svg">
<path d="M16.9896 8.09391V3.42725H18.0104V8.09391H16.9896ZM24.5 11.2293L23.7708 10.4637L27.0885 7.146L27.8177 7.91162L24.5 11.2293ZM26.9062 18.0106V16.9897H31.5729V18.0106H26.9062ZM27.0885 27.8179L23.7708 24.5002L24.5365 23.7345L27.8542 27.0522L27.0885 27.8179ZM10.5365 11.2658L7.14583 7.87516L7.91146 7.18245L11.2656 10.5366L10.5365 11.2658ZM9.84375 27.9272H15.6771C16.5278 27.9272 17.263 27.6174 17.8828 26.9976C18.5026 26.3778 18.8125 25.6425 18.8125 24.7918C18.8125 23.9411 18.5148 23.212 17.9193 22.6043C17.3238 21.9967 16.6007 21.6929 15.75 21.6929H14.474L14 20.5627C13.6111 19.6634 13.0095 18.9524 12.1953 18.4299C11.3811 17.9073 10.4757 17.646 9.47917 17.646C8.09375 17.646 6.92101 18.126 5.96094 19.0861C5.00087 20.0462 4.52083 21.2189 4.52083 22.6043C4.52083 24.087 5.03733 25.3448 6.07031 26.3778C7.1033 27.4108 8.36111 27.9272 9.84375 27.9272ZM9.84375 28.9481C8.09375 28.9481 6.59896 28.3283 5.35937 27.0887C4.11979 25.8491 3.5 24.3543 3.5 22.6043C3.5 20.9272 4.07726 19.5114 5.23177 18.3569C6.38628 17.2024 7.80208 16.6252 9.47917 16.6252C10.7674 16.6252 11.934 16.9958 12.9792 17.7371C14.0243 18.4785 14.7535 19.4568 15.1667 20.672C16.3333 20.672 17.3967 20.9941 18.3568 21.6382C19.3168 22.2823 19.809 23.3213 19.8333 24.7554C19.8333 25.8977 19.4323 26.8821 18.6302 27.7085C17.8281 28.5349 16.8437 28.9481 15.6771 28.9481H9.84375ZM19.7604 24.0262C19.7118 23.8561 19.6632 23.692 19.6146 23.534C19.566 23.376 19.5174 23.212 19.4687 23.0418C20.6354 22.5557 21.5712 21.8205 22.276 20.8361C22.9809 19.8517 23.3333 18.7397 23.3333 17.5002C23.3333 15.896 22.7622 14.5227 21.6198 13.3804C20.4774 12.238 19.1042 11.6668 17.5 11.6668C15.9687 11.6668 14.6441 12.1833 13.526 13.2163C12.408 14.2493 11.8003 15.5314 11.7031 17.0627L11.1927 16.9168L10.6823 16.771C10.8767 15.021 11.6241 13.5627 12.9245 12.396C14.2248 11.2293 15.75 10.646 17.5 10.646C19.3958 10.646 21.0122 11.3144 22.349 12.6512C23.6858 13.988 24.3542 15.6043 24.3542 17.5002C24.3542 18.9585 23.9349 20.2771 23.0964 21.4559C22.2578 22.6347 21.1458 23.4915 19.7604 24.0262Z" fill="white"/>
</svg>
