<svg width="35" height="35" viewBox="0 0 35 35" fill="none" xmlns="http://www.w3.org/2000/svg">
<path d="M19.104 31.6457H15.3123L15.4961 31.4882C15.6186 31.3832 15.7518 31.2655 15.8957 31.1353C16.0396 31.005 16.1728 30.8873 16.2953 30.7823L16.479 30.6248H19.104C21.2429 30.6248 23.2238 30.0901 25.0467 29.0207C26.8696 27.9512 28.3037 26.4807 29.3488 24.6092C27.2585 24.4133 25.2776 23.8809 23.4061 23.012C21.5346 22.1431 19.8575 20.9619 18.3748 19.4686C16.9165 17.9859 15.7438 16.3089 14.8566 14.4373C13.9695 12.5658 13.4408 10.5971 13.2707 8.53109C11.3991 9.57623 9.93473 11.0163 8.87744 12.8514C7.82015 14.6865 7.2915 16.6734 7.2915 18.8123C7.2915 19.1769 7.30973 19.5597 7.34619 19.9608C7.38265 20.3618 7.43734 20.7325 7.51025 21.0728L7.36442 21.1092C7.2672 21.1335 7.15175 21.1639 7.01807 21.2004C6.88439 21.2368 6.76893 21.2733 6.67171 21.3097L6.52588 21.3644C6.45296 20.9512 6.3922 20.532 6.34359 20.1066C6.29498 19.6813 6.27067 19.2498 6.27067 18.8123C6.27067 16.1873 6.99376 13.7993 8.43994 11.6483C9.88612 9.49723 11.8245 7.9356 14.255 6.96338C14.255 9.19949 14.6682 11.3384 15.4946 13.38C16.321 15.4217 17.5241 17.2325 19.104 18.8123C20.6839 20.3922 22.4946 21.5953 24.5363 22.4217C26.578 23.2481 28.7169 23.6613 30.953 23.6613C29.9807 26.0919 28.4191 28.0302 26.2681 29.4764C24.117 30.9226 21.729 31.6457 19.104 31.6457ZM8.74984 30.6248H15.3123C15.92 30.6248 16.4365 30.4122 16.8618 29.9868C17.2872 29.5615 17.4998 29.045 17.4998 28.4373C17.4998 27.8297 17.2932 27.3132 16.88 26.8879C16.4669 26.4625 15.9686 26.2498 15.3853 26.2498H13.4894L12.7603 24.4998C12.42 23.6978 11.8853 23.0597 11.1561 22.5858C10.4269 22.1118 9.62484 21.8748 8.74984 21.8748C7.53456 21.8748 6.50157 22.2941 5.65088 23.1327C4.80018 23.9712 4.37484 25.0103 4.37484 26.2498C4.37484 27.4651 4.80018 28.4981 5.65088 29.3488C6.50157 30.1995 7.53456 30.6248 8.74984 30.6248ZM8.74984 31.6457C7.24289 31.5971 5.96685 31.0563 4.92171 30.0233C3.87657 28.9903 3.354 27.7288 3.354 26.2389C3.354 24.7492 3.87657 23.4792 4.92171 22.429C5.96685 21.379 7.24411 20.854 8.75348 20.854C9.8448 20.854 10.8355 21.1502 11.7256 21.7425C12.6156 22.3351 13.2765 23.1327 13.7082 24.1353L14.1821 25.229H15.3488C16.2238 25.229 16.9712 25.5429 17.591 26.1707C18.2108 26.7985 18.5207 27.5542 18.5207 28.4377C18.5207 29.3368 18.2108 30.0962 17.591 30.716C16.9712 31.3358 16.2116 31.6457 15.3123 31.6457H8.74984Z" fill="white"/>
</svg>
