<svg width="35" height="35" viewBox="0 0 35 35" fill="none" xmlns="http://www.w3.org/2000/svg">
<path d="M20.0887 31.3908C19.9672 31.4637 19.8396 31.4759 19.7059 31.4272C19.5722 31.3786 19.4689 31.2936 19.396 31.172L16.8439 26.0679C16.771 25.9463 16.7588 25.8187 16.8075 25.6851C16.8561 25.5514 16.9411 25.4481 17.0627 25.3752C17.1842 25.3022 17.3179 25.2962 17.4637 25.3569C17.6095 25.4177 17.7189 25.5088 17.7918 25.6304L20.3439 30.6981C20.4168 30.8196 20.4229 30.9472 20.3621 31.0809C20.3014 31.2146 20.2102 31.3179 20.0887 31.3908ZM28.8752 31.3908C28.7536 31.4637 28.626 31.4759 28.4924 31.4272C28.3587 31.3786 28.2554 31.2936 28.1825 31.172L25.6304 26.0679C25.5575 25.9463 25.5453 25.8187 25.5939 25.6851C25.6425 25.5514 25.7276 25.4481 25.8491 25.3752C25.9707 25.3022 26.1043 25.2962 26.2502 25.3569C26.396 25.4177 26.5054 25.5088 26.5783 25.6304L29.1304 30.6981C29.2033 30.8196 29.2094 30.9472 29.1486 31.0809C29.0878 31.2146 28.9967 31.3179 28.8752 31.3908ZM11.3387 31.3908C11.2172 31.4637 11.0835 31.4759 10.9377 31.4272C10.7918 31.3786 10.6825 31.2936 10.6095 31.172L8.05745 26.0679C7.98454 25.9463 7.97846 25.8187 8.03923 25.6851C8.09999 25.5514 8.19114 25.4481 8.31266 25.3752C8.43419 25.3022 8.5618 25.2962 8.69548 25.3569C8.82916 25.4177 8.93245 25.5088 9.00537 25.6304L11.5575 30.6981C11.6304 30.8196 11.6425 30.9472 11.5939 31.0809C11.5453 31.2146 11.4602 31.3179 11.3387 31.3908ZM10.9377 22.3856C8.96891 22.3856 7.29791 21.6989 5.92464 20.3257C4.55138 18.9524 3.86475 17.2814 3.86475 15.3127C3.86475 13.4654 4.49061 11.8734 5.74235 10.5366C6.99409 9.19982 8.56787 8.43419 10.4637 8.23975C11.1686 6.87864 12.1347 5.80919 13.3621 5.03141C14.5896 4.25363 15.9689 3.86475 17.5002 3.86475C19.5661 3.86475 21.3344 4.55745 22.8049 5.94287C24.2753 7.32829 25.12 9.05398 25.3387 11.12C27.1616 11.2172 28.5835 11.8187 29.6043 12.9246C30.6252 14.0305 31.1356 15.3127 31.1356 16.771C31.1356 18.3266 30.5887 19.6512 29.495 20.745C28.4012 21.8387 27.0766 22.3856 25.521 22.3856H10.9377ZM10.9377 21.3647H25.521C26.7849 21.3647 27.8665 20.9151 28.7658 20.0158C29.6651 19.1165 30.1147 18.0349 30.1147 16.771C30.1147 15.5071 29.6651 14.4255 28.7658 13.5262C27.8665 12.6269 26.7849 12.1772 25.521 12.1772H24.2814V11.6668C24.2814 9.7953 23.6191 8.19721 22.2944 6.87256C20.9698 5.54791 19.3717 4.88558 17.5002 4.88558C16.1391 4.88558 14.8995 5.25624 13.7814 5.99756C12.6634 6.73888 11.8248 7.72933 11.2658 8.96891L11.1564 9.26058H10.8647C9.21197 9.30919 7.80225 9.91683 6.63558 11.0835C5.46891 12.2502 4.88558 13.6599 4.88558 15.3127C4.88558 16.9897 5.47499 18.4177 6.65381 19.5965C7.83263 20.7753 9.26058 21.3647 10.9377 21.3647Z" fill="white"/>
</svg>
