<svg width="35" height="35" viewBox="0 0 35 35" fill="none" xmlns="http://www.w3.org/2000/svg">
<path d="M9.47933 26.9063C9.21197 26.9063 8.97499 26.803 8.76839 26.5964C8.5618 26.3898 8.4585 26.1528 8.4585 25.8854C8.4585 25.6181 8.5618 25.3811 8.76839 25.1745C8.97499 24.9679 9.21197 24.8646 9.47933 24.8646C9.74669 24.8646 9.98367 24.9679 10.1903 25.1745C10.3969 25.3811 10.5002 25.6181 10.5002 25.8854C10.5002 26.1528 10.3969 26.3898 10.1903 26.5964C9.98367 26.803 9.74669 26.9063 9.47933 26.9063ZM13.8543 31.2813C13.587 31.2813 13.35 31.178 13.1434 30.9714C12.9368 30.7648 12.8335 30.5278 12.8335 30.2604C12.8335 29.9931 12.9368 29.7561 13.1434 29.5495C13.35 29.3429 13.587 29.2396 13.8543 29.2396C14.1217 29.2396 14.3587 29.3429 14.5653 29.5495C14.7719 29.7561 14.8752 29.9931 14.8752 30.2604C14.8752 30.5278 14.7719 30.7648 14.5653 30.9714C14.3587 31.178 14.1217 31.2813 13.8543 31.2813ZM18.2293 26.9063C17.962 26.9063 17.725 26.803 17.5184 26.5964C17.3118 26.3898 17.2085 26.1528 17.2085 25.8854C17.2085 25.6181 17.3118 25.3811 17.5184 25.1745C17.725 24.9679 17.962 24.8646 18.2293 24.8646C18.4967 24.8646 18.7337 24.9679 18.9403 25.1745C19.1469 25.3811 19.2502 25.6181 19.2502 25.8854C19.2502 26.1528 19.1469 26.3898 18.9403 26.5964C18.7337 26.803 18.4967 26.9063 18.2293 26.9063ZM26.9793 26.9063C26.712 26.9063 26.475 26.803 26.2684 26.5964C26.0618 26.3898 25.9585 26.1528 25.9585 25.8854C25.9585 25.6181 26.0618 25.3811 26.2684 25.1745C26.475 24.9679 26.712 24.8646 26.9793 24.8646C27.2467 24.8646 27.4837 24.9679 27.6903 25.1745C27.8969 25.3811 28.0002 25.6181 28.0002 25.8854C28.0002 26.1528 27.8969 26.3898 27.6903 26.5964C27.4837 26.803 27.2467 26.9063 26.9793 26.9063ZM22.6043 31.2813C22.337 31.2813 22.1 31.178 21.8934 30.9714C21.6868 30.7648 21.5835 30.5278 21.5835 30.2604C21.5835 29.9931 21.6868 29.7561 21.8934 29.5495C22.1 29.3429 22.337 29.2396 22.6043 29.2396C22.8717 29.2396 23.1087 29.3429 23.3153 29.5495C23.5219 29.7561 23.6252 29.9931 23.6252 30.2604C23.6252 30.5278 23.5219 30.7648 23.3153 30.9714C23.1087 31.178 22.8717 31.2813 22.6043 31.2813ZM10.9377 20.9271C8.96891 20.9271 7.29791 20.2405 5.92464 18.8672C4.55138 17.4939 3.86475 15.8229 3.86475 13.8542C3.86475 12.0069 4.49061 10.4149 5.74235 9.07813C6.99409 7.74132 8.56787 6.97569 10.4637 6.78125C11.1708 5.41844 12.1375 4.34863 13.364 3.57182C14.5902 2.79477 15.9643 2.40625 17.4863 2.40625C19.5615 2.40625 21.3344 3.09896 22.8049 4.48438C24.2753 5.86979 25.12 7.59549 25.3387 9.66146C27.1616 9.75868 28.5835 10.3602 29.6043 11.4661C30.6252 12.572 31.1356 13.8578 31.1356 15.3234C31.1356 16.8717 30.5897 18.1927 29.4979 19.2865C28.4063 20.3802 27.0807 20.9271 25.521 20.9271H10.9377ZM10.9377 19.9063H25.521C26.7849 19.9063 27.8665 19.4566 28.7658 18.5573C29.6651 17.658 30.1147 16.5764 30.1147 15.3125C30.1147 14.0486 29.6651 12.967 28.7658 12.0677C27.8665 11.1684 26.7849 10.7188 25.521 10.7188H24.2814V10.2083C24.2814 8.34361 23.6169 6.74722 22.2879 5.41917C20.9586 4.09111 19.3609 3.42708 17.4947 3.42708C16.1372 3.42708 14.9009 3.79568 13.7858 4.53287C12.6704 5.2703 11.8304 6.26281 11.2658 7.51042L11.1513 7.80208H10.8647C9.21829 7.85969 7.81015 8.47207 6.64032 9.63922C5.47049 10.8064 4.88558 12.2114 4.88558 13.8542C4.88558 15.5257 5.47633 16.9523 6.65782 18.134C7.83956 19.3155 9.26617 19.9063 10.9377 19.9063Z" fill="white"/>
</svg>
