<svg width="20" height="20" viewBox="0 0 20 20" fill="none" xmlns="http://www.w3.org/2000/svg">
<path d="M6.97266 1C6.97266 2.61173 7.2709 4.15228 7.86621 5.62305C8.46121 7.09305 9.32672 8.39703 10.4648 9.53516C11.603 10.6733 12.907 11.5388 14.377 12.1338C15.8477 12.7291 17.3883 13.0273 19 13.0273H19.2217L19.1396 13.2334C18.4196 15.0335 17.2609 16.4714 15.667 17.543C14.0734 18.6143 12.3028 19.1503 10.3594 19.1504C9.04458 19.1504 7.80954 18.9021 6.65625 18.4062C5.5057 17.9115 4.49742 17.2318 3.63281 16.3672C2.7682 15.5026 2.08851 14.4943 1.59375 13.3438C1.09792 12.1905 0.849609 10.9554 0.849609 9.64062C0.84969 7.69719 1.38575 5.92656 2.45703 4.33301C3.52863 2.73911 4.9665 1.58045 6.7666 0.860352L6.97266 0.77832V1ZM5.97852 2.38867C4.73212 3.12711 3.75067 4.1205 3.03125 5.36914C2.27358 6.68422 1.8946 8.10703 1.89453 9.64062C1.89453 11.9942 2.71669 13.9901 4.36328 15.6367C6.00987 17.2833 8.00579 18.1055 10.3594 18.1055C11.8927 18.1054 13.3112 17.7222 14.6172 16.9561C15.8587 16.2276 16.8475 15.2376 17.5859 13.9844C16.1296 13.8242 14.7451 13.4436 13.4336 12.8369C12.0523 12.1978 10.8142 11.3289 9.7207 10.2314C8.62761 9.13439 7.7579 7.89923 7.1123 6.52734C6.49916 5.22431 6.12265 3.84435 5.97852 2.38867Z" fill="white" stroke="white" stroke-width="0.3"/>
</svg>
