<svg width="20" height="20" viewBox="0 0 20 20" fill="none" xmlns="http://www.w3.org/2000/svg">
<path d="M9.99512 0.875C11.2557 0.875 12.4435 1.11449 13.5557 1.59375C14.6653 2.07196 15.632 2.72177 16.4541 3.54297C17.2763 4.36416 17.9266 5.32944 18.4053 6.4375C18.8852 7.54818 19.1249 8.73452 19.125 9.99512C19.125 11.2557 18.8855 12.4435 18.4062 13.5557C17.928 14.6653 17.2782 15.632 16.457 16.4541C15.6358 17.2763 14.6706 17.9266 13.5625 18.4053C12.4518 18.8852 11.2655 19.1249 10.0049 19.125C8.7443 19.125 7.55649 18.8855 6.44434 18.4062C5.33473 17.928 4.36797 17.2782 3.5459 16.457C2.72373 15.6358 2.07344 14.6706 1.59473 13.5625C1.1148 12.4518 0.875062 11.2655 0.875 10.0049C0.875 8.7443 1.11449 7.55649 1.59375 6.44434C2.07196 5.33473 2.72177 4.36797 3.54297 3.5459C4.36416 2.72373 5.32944 2.07344 6.4375 1.59473C7.54818 1.1148 8.73452 0.875062 9.99512 0.875ZM10 1.84961C7.72211 1.84961 5.79729 2.63826 4.21777 4.21777C2.63826 5.79729 1.84961 7.72211 1.84961 10C1.84961 12.2779 2.63826 14.2027 4.21777 15.7822C5.79729 17.3617 7.72211 18.1504 10 18.1504C12.2779 18.1504 14.2027 17.3617 15.7822 15.7822C17.3617 14.2027 18.1504 12.2779 18.1504 10C18.1504 7.72211 17.3617 5.79729 15.7822 4.21777C14.2027 2.63826 12.2779 1.84961 10 1.84961ZM14.625 9.5127V10.4873H5.375V9.5127H14.625Z" fill="white" stroke="white" stroke-width="0.25"/>
</svg>
